<mxfile modified="2020-09-03T14:14:53.163Z" host="app.diagrams.net" agent="5.0 (Macintosh; Intel Mac OS X 10_15_6) AppleWebKit/605.1.15 (KHTML, like Gecko) Version/13.1.2 Safari/605.1.15" etag="QH78CwfAamNZxNM_qunh" version="13.6.5" type="github" pages="3">
  <diagram id="Ht1M8jgEwFfnCIfOTk4-" name="Architecture">
    <mxGraphModel dx="1426" dy="842" grid="1" gridSize="10" guides="1" tooltips="1" connect="1" arrows="1" fold="1" page="1" pageScale="1" pageWidth="1169" pageHeight="827" background="none" math="0" shadow="0">
      <root>
        <mxCell id="0" />
        <mxCell id="1" parent="0" />
        <mxCell id="YaRt45jSneje2c83sAmx-1" value="Visual Mix architecture - Local" style="points=[[0,0],[0.25,0],[0.5,0],[0.75,0],[1,0],[1,0.25],[1,0.5],[1,0.75],[1,1],[0.75,1],[0.5,1],[0.25,1],[0,1],[0,0.75],[0,0.5],[0,0.25]];outlineConnect=0;gradientColor=none;html=1;whiteSpace=wrap;fontSize=12;fontStyle=0;shape=mxgraph.aws4.group;grIcon=mxgraph.aws4.group_security_group;grStroke=0;strokeColor=#248814;fillColor=#E9F3E6;verticalAlign=top;align=left;spacingLeft=30;fontColor=#248814;dashed=0;" parent="1" vertex="1">
          <mxGeometry x="29" y="181.5" width="831" height="458.5" as="geometry" />
        </mxCell>
        <mxCell id="iUgoQPyHH8TvtxsXmX7b-1" value="" style="group" parent="1" vertex="1" connectable="0">
          <mxGeometry x="8" y="65.5" width="1060" height="85" as="geometry" />
        </mxCell>
        <mxCell id="iUgoQPyHH8TvtxsXmX7b-2" value="Visual Mix - vm-security-api" style="text;html=1;resizable=0;points=[];autosize=1;align=left;verticalAlign=top;spacingTop=-4;fontSize=30;fontStyle=1" parent="iUgoQPyHH8TvtxsXmX7b-1" vertex="1">
          <mxGeometry x="4" width="410" height="40" as="geometry" />
        </mxCell>
        <mxCell id="iUgoQPyHH8TvtxsXmX7b-3" value="Visual Mix - Security API" style="text;html=1;resizable=0;points=[];autosize=1;align=left;verticalAlign=top;spacingTop=-4;fontSize=16" parent="iUgoQPyHH8TvtxsXmX7b-1" vertex="1">
          <mxGeometry x="4" y="50" width="190" height="20" as="geometry" />
        </mxCell>
        <mxCell id="iUgoQPyHH8TvtxsXmX7b-4" value="" style="line;strokeWidth=2;html=1;fontSize=14;" parent="iUgoQPyHH8TvtxsXmX7b-1" vertex="1">
          <mxGeometry y="75" width="1060" height="10" as="geometry" />
        </mxCell>
        <mxCell id="YaRt45jSneje2c83sAmx-2" value="API available Â client" style="fillColor=#EFF0F3;strokeColor=none;dashed=0;verticalAlign=top;fontStyle=0;fontColor=#232F3D;" parent="1" vertex="1">
          <mxGeometry x="60" y="224" width="134.5" height="386" as="geometry" />
        </mxCell>
        <mxCell id="YaRt45jSneje2c83sAmx-20" style="edgeStyle=orthogonalEdgeStyle;rounded=0;orthogonalLoop=1;jettySize=auto;html=1;exitX=0.9;exitY=0.2;exitDx=0;exitDy=0;exitPerimeter=0;entryX=0.1;entryY=0.2;entryDx=0;entryDy=0;entryPerimeter=0;" parent="1" source="YaRt45jSneje2c83sAmx-3" target="YaRt45jSneje2c83sAmx-17" edge="1">
          <mxGeometry relative="1" as="geometry" />
        </mxCell>
        <mxCell id="YaRt45jSneje2c83sAmx-99" style="edgeStyle=orthogonalEdgeStyle;rounded=0;orthogonalLoop=1;jettySize=auto;html=1;exitX=0.5;exitY=1;exitDx=0;exitDy=0;exitPerimeter=0;entryX=0;entryY=0.25;entryDx=0;entryDy=0;" parent="1" source="YaRt45jSneje2c83sAmx-3" target="YaRt45jSneje2c83sAmx-93" edge="1">
          <mxGeometry relative="1" as="geometry">
            <Array as="points">
              <mxPoint x="220" y="332" />
              <mxPoint x="220" y="390" />
            </Array>
          </mxGeometry>
        </mxCell>
        <mxCell id="YaRt45jSneje2c83sAmx-3" value="vm-av-api&lt;br&gt;&lt;br&gt;&lt;br&gt;&lt;br&gt;&lt;br&gt;&lt;br&gt;" style="html=1;dashed=0;whitespace=wrap;fillColor=#2875E2;strokeColor=#ffffff;points=[[0.005,0.63,0],[0.1,0.2,0],[0.9,0.2,0],[0.5,0,0],[0.995,0.63,0],[0.72,0.99,0],[0.5,1,0],[0.28,0.99,0]];shape=mxgraph.kubernetes.icon;prIcon=api" parent="1" vertex="1">
          <mxGeometry x="100" y="283.5" width="50" height="48" as="geometry" />
        </mxCell>
        <mxCell id="YaRt45jSneje2c83sAmx-29" style="edgeStyle=orthogonalEdgeStyle;rounded=0;orthogonalLoop=1;jettySize=auto;html=1;exitX=0.005;exitY=0.63;exitDx=0;exitDy=0;exitPerimeter=0;entryX=0.5;entryY=0;entryDx=0;entryDy=0;entryPerimeter=0;" parent="1" source="YaRt45jSneje2c83sAmx-4" target="YaRt45jSneje2c83sAmx-17" edge="1">
          <mxGeometry relative="1" as="geometry">
            <Array as="points">
              <mxPoint x="70" y="408" />
              <mxPoint x="70" y="264" />
              <mxPoint x="325" y="264" />
            </Array>
          </mxGeometry>
        </mxCell>
        <mxCell id="YaRt45jSneje2c83sAmx-98" style="edgeStyle=orthogonalEdgeStyle;rounded=0;orthogonalLoop=1;jettySize=auto;html=1;exitX=0.995;exitY=0.63;exitDx=0;exitDy=0;exitPerimeter=0;entryX=0.011;entryY=0.325;entryDx=0;entryDy=0;entryPerimeter=0;" parent="1" source="YaRt45jSneje2c83sAmx-4" target="YaRt45jSneje2c83sAmx-93" edge="1">
          <mxGeometry relative="1" as="geometry" />
        </mxCell>
        <mxCell id="YaRt45jSneje2c83sAmx-4" value="vm-visualstore-api&lt;br&gt;&lt;br&gt;&lt;br&gt;&lt;br&gt;&lt;br&gt;&lt;br&gt;" style="html=1;dashed=0;whitespace=wrap;fillColor=#2875E2;strokeColor=#ffffff;points=[[0.005,0.63,0],[0.1,0.2,0],[0.9,0.2,0],[0.5,0,0],[0.995,0.63,0],[0.72,0.99,0],[0.5,1,0],[0.28,0.99,0]];shape=mxgraph.kubernetes.icon;prIcon=api" parent="1" vertex="1">
          <mxGeometry x="100" y="378" width="50" height="48" as="geometry" />
        </mxCell>
        <mxCell id="YaRt45jSneje2c83sAmx-30" style="edgeStyle=orthogonalEdgeStyle;rounded=0;orthogonalLoop=1;jettySize=auto;html=1;exitX=0.5;exitY=0;exitDx=0;exitDy=0;exitPerimeter=0;entryX=0.005;entryY=0.63;entryDx=0;entryDy=0;entryPerimeter=0;" parent="1" source="YaRt45jSneje2c83sAmx-17" target="YaRt45jSneje2c83sAmx-4" edge="1">
          <mxGeometry relative="1" as="geometry">
            <Array as="points">
              <mxPoint x="325" y="264" />
              <mxPoint x="70" y="264" />
              <mxPoint x="70" y="408" />
            </Array>
          </mxGeometry>
        </mxCell>
        <mxCell id="YaRt45jSneje2c83sAmx-31" style="edgeStyle=orthogonalEdgeStyle;rounded=0;orthogonalLoop=1;jettySize=auto;html=1;exitX=0.1;exitY=0.2;exitDx=0;exitDy=0;exitPerimeter=0;entryX=0.9;entryY=0.2;entryDx=0;entryDy=0;entryPerimeter=0;" parent="1" source="YaRt45jSneje2c83sAmx-17" target="YaRt45jSneje2c83sAmx-3" edge="1">
          <mxGeometry relative="1" as="geometry" />
        </mxCell>
        <mxCell id="YaRt45jSneje2c83sAmx-17" value="&lt;br&gt;&lt;br&gt;&lt;br&gt;&lt;br&gt;&lt;br&gt;&lt;br&gt;&lt;br&gt;&lt;br&gt;&lt;br&gt;&lt;br&gt;vm-auth-api&lt;br&gt;&lt;br&gt;&lt;br&gt;&lt;br&gt;&lt;br&gt;" style="html=1;dashed=0;whitespace=wrap;fillColor=#2875E2;strokeColor=#ffffff;points=[[0.005,0.63,0],[0.1,0.2,0],[0.9,0.2,0],[0.5,0,0],[0.995,0.63,0],[0.72,0.99,0],[0.5,1,0],[0.28,0.99,0]];shape=mxgraph.kubernetes.icon;prIcon=api" parent="1" vertex="1">
          <mxGeometry x="300" y="283.5" width="50" height="48" as="geometry" />
        </mxCell>
        <mxCell id="YaRt45jSneje2c83sAmx-97" value="" style="group" parent="1" vertex="1" connectable="0">
          <mxGeometry x="410" y="330" width="90" height="240" as="geometry" />
        </mxCell>
        <mxCell id="YaRt45jSneje2c83sAmx-95" value="" style="group" parent="YaRt45jSneje2c83sAmx-97" vertex="1" connectable="0">
          <mxGeometry width="90" height="240" as="geometry" />
        </mxCell>
        <mxCell id="YaRt45jSneje2c83sAmx-94" value="" style="group" parent="YaRt45jSneje2c83sAmx-95" vertex="1" connectable="0">
          <mxGeometry width="90" height="240" as="geometry" />
        </mxCell>
        <mxCell id="YaRt45jSneje2c83sAmx-93" value="Schema" style="fontStyle=0;verticalAlign=top;align=center;spacingTop=-2;fillColor=none;rounded=0;whiteSpace=wrap;html=1;strokeColor=#FF0000;strokeWidth=2;dashed=1;container=1;collapsible=0;expand=0;recursiveResize=0;" parent="YaRt45jSneje2c83sAmx-94" vertex="1">
          <mxGeometry width="90" height="240" as="geometry" />
        </mxCell>
        <mxCell id="YaRt45jSneje2c83sAmx-6" value="&lt;br&gt;&lt;br&gt;&lt;br&gt;&lt;br&gt;&lt;br&gt;&lt;br&gt;&lt;br&gt;&lt;br&gt;&lt;br&gt;&lt;br&gt;&lt;br&gt;&lt;br&gt;vm-security-api&lt;br&gt;&lt;br&gt;&lt;br&gt;&lt;br&gt;&lt;br&gt;&lt;br&gt;" style="html=1;dashed=0;whitespace=wrap;fillColor=#2875E2;strokeColor=#ffffff;points=[[0.005,0.63,0],[0.1,0.2,0],[0.9,0.2,0],[0.5,0,0],[0.995,0.63,0],[0.72,0.99,0],[0.5,1,0],[0.28,0.99,0]];shape=mxgraph.kubernetes.icon;prIcon=api" parent="YaRt45jSneje2c83sAmx-93" vertex="1">
          <mxGeometry x="20" y="40" width="50" height="48" as="geometry" />
        </mxCell>
        <mxCell id="YaRt45jSneje2c83sAmx-14" value="&lt;span style=&quot;font-size: 10px&quot;&gt;vm-security&lt;/span&gt;" style="outlineConnect=0;dashed=0;verticalLabelPosition=bottom;verticalAlign=top;align=center;html=1;shape=mxgraph.aws3.rds;fillColor=#2E73B8;gradientColor=none;fontSize=14;" parent="YaRt45jSneje2c83sAmx-93" vertex="1">
          <mxGeometry x="27.669999999999845" y="169" width="34.66" height="39" as="geometry" />
        </mxCell>
        <mxCell id="E5Ojf1beW3irHs6wn2YT-1" value="Securties APIs" style="points=[[0,0],[0.25,0],[0.5,0],[0.75,0],[1,0],[1,0.25],[1,0.5],[1,0.75],[1,1],[0.75,1],[0.5,1],[0.25,1],[0,1],[0,0.75],[0,0.5],[0,0.25]];outlineConnect=0;gradientColor=none;html=1;whiteSpace=wrap;fontSize=12;fontStyle=0;shape=mxgraph.aws4.group;grIcon=mxgraph.aws4.group_aws_cloud;strokeColor=#232F3E;fillColor=none;verticalAlign=top;align=left;spacingLeft=30;fontColor=#232F3E;dashed=0;" parent="1" vertex="1">
          <mxGeometry x="700" y="209.25" width="130" height="385.5" as="geometry" />
        </mxCell>
        <mxCell id="E5Ojf1beW3irHs6wn2YT-2" value="Acesso Bio" style="html=1;fillColor=#5184F3;strokeColor=none;verticalAlign=top;labelPosition=center;verticalLabelPosition=bottom;align=center;spacingTop=-6;fontSize=11;fontStyle=1;fontColor=#999999;shape=mxgraph.gcp2.hexIcon;prIcon=cloud_apis" parent="1" vertex="1">
          <mxGeometry x="739.05" y="254" width="51.9" height="46" as="geometry" />
        </mxCell>
        <mxCell id="E5Ojf1beW3irHs6wn2YT-3" style="edgeStyle=orthogonalEdgeStyle;rounded=0;orthogonalLoop=1;jettySize=auto;html=1;exitX=0.995;exitY=0.63;exitDx=0;exitDy=0;exitPerimeter=0;entryX=0.175;entryY=0.5;entryDx=0;entryDy=0;entryPerimeter=0;" parent="1" source="YaRt45jSneje2c83sAmx-6" target="E5Ojf1beW3irHs6wn2YT-2" edge="1">
          <mxGeometry relative="1" as="geometry">
            <Array as="points">
              <mxPoint x="530" y="400" />
              <mxPoint x="530" y="277" />
            </Array>
          </mxGeometry>
        </mxCell>
        <mxCell id="E5Ojf1beW3irHs6wn2YT-6" style="edgeStyle=orthogonalEdgeStyle;rounded=0;orthogonalLoop=1;jettySize=auto;html=1;exitX=0;exitY=0.25;exitDx=0;exitDy=0;entryX=0.5;entryY=1;entryDx=0;entryDy=0;entryPerimeter=0;" parent="1" source="YaRt45jSneje2c83sAmx-93" target="YaRt45jSneje2c83sAmx-3" edge="1">
          <mxGeometry relative="1" as="geometry">
            <Array as="points">
              <mxPoint x="220" y="390" />
              <mxPoint x="220" y="332" />
            </Array>
          </mxGeometry>
        </mxCell>
        <mxCell id="E5Ojf1beW3irHs6wn2YT-7" style="edgeStyle=orthogonalEdgeStyle;rounded=0;orthogonalLoop=1;jettySize=auto;html=1;entryX=0.995;entryY=0.63;entryDx=0;entryDy=0;entryPerimeter=0;" parent="1" target="YaRt45jSneje2c83sAmx-4" edge="1">
          <mxGeometry relative="1" as="geometry">
            <mxPoint x="410" y="408" as="sourcePoint" />
            <Array as="points">
              <mxPoint x="410" y="408" />
            </Array>
          </mxGeometry>
        </mxCell>
        <mxCell id="E5Ojf1beW3irHs6wn2YT-15" value="" style="group" parent="1" vertex="1" connectable="0">
          <mxGeometry x="550" y="330" width="90" height="240" as="geometry" />
        </mxCell>
        <mxCell id="E5Ojf1beW3irHs6wn2YT-16" value="" style="group" parent="E5Ojf1beW3irHs6wn2YT-15" vertex="1" connectable="0">
          <mxGeometry width="90" height="240" as="geometry" />
        </mxCell>
        <mxCell id="E5Ojf1beW3irHs6wn2YT-17" value="" style="group" parent="E5Ojf1beW3irHs6wn2YT-16" vertex="1" connectable="0">
          <mxGeometry width="90" height="240" as="geometry" />
        </mxCell>
        <mxCell id="E5Ojf1beW3irHs6wn2YT-18" value="Schema" style="fontStyle=0;verticalAlign=top;align=center;spacingTop=-2;fillColor=none;rounded=0;whiteSpace=wrap;html=1;strokeColor=#FF0000;strokeWidth=2;dashed=1;container=1;collapsible=0;expand=0;recursiveResize=0;" parent="E5Ojf1beW3irHs6wn2YT-17" vertex="1">
          <mxGeometry width="90" height="240" as="geometry" />
        </mxCell>
        <mxCell id="E5Ojf1beW3irHs6wn2YT-19" value="&lt;br&gt;&lt;br&gt;&lt;br&gt;&lt;br&gt;&lt;br&gt;&lt;br&gt;&lt;br&gt;&lt;br&gt;&lt;br&gt;&lt;br&gt;&lt;br&gt;&lt;br&gt;vm-picture-api&lt;br&gt;&lt;br&gt;&lt;br&gt;&lt;br&gt;&lt;br&gt;" style="html=1;dashed=0;whitespace=wrap;fillColor=#2875E2;strokeColor=#ffffff;points=[[0.005,0.63,0],[0.1,0.2,0],[0.9,0.2,0],[0.5,0,0],[0.995,0.63,0],[0.72,0.99,0],[0.5,1,0],[0.28,0.99,0]];shape=mxgraph.kubernetes.icon;prIcon=api" parent="E5Ojf1beW3irHs6wn2YT-18" vertex="1">
          <mxGeometry x="20" y="40" width="50" height="48" as="geometry" />
        </mxCell>
        <mxCell id="E5Ojf1beW3irHs6wn2YT-20" value="&lt;span style=&quot;font-size: 10px&quot;&gt;vm-picture&lt;/span&gt;" style="outlineConnect=0;dashed=0;verticalLabelPosition=bottom;verticalAlign=top;align=center;html=1;shape=mxgraph.aws3.rds;fillColor=#2E73B8;gradientColor=none;fontSize=14;" parent="E5Ojf1beW3irHs6wn2YT-18" vertex="1">
          <mxGeometry x="27.669999999999845" y="169" width="34.66" height="39" as="geometry" />
        </mxCell>
        <mxCell id="E5Ojf1beW3irHs6wn2YT-22" style="edgeStyle=orthogonalEdgeStyle;rounded=0;orthogonalLoop=1;jettySize=auto;html=1;exitX=1;exitY=0.5;exitDx=0;exitDy=0;entryX=0;entryY=0.321;entryDx=0;entryDy=0;entryPerimeter=0;" parent="1" source="YaRt45jSneje2c83sAmx-93" target="E5Ojf1beW3irHs6wn2YT-18" edge="1">
          <mxGeometry relative="1" as="geometry" />
        </mxCell>
        <mxCell id="E5Ojf1beW3irHs6wn2YT-23" value="" style="group" parent="1" vertex="1" connectable="0">
          <mxGeometry x="880" y="160" width="539" height="480" as="geometry" />
        </mxCell>
        <mxCell id="9gZsiQix6CurxSerb5Fo-18" value="" style="rounded=0;whiteSpace=wrap;html=1;fillColor=#EAEDED;fontSize=22;fontColor=#FFFFFF;strokeColor=none;labelBackgroundColor=none;" parent="E5Ojf1beW3irHs6wn2YT-23" vertex="1">
          <mxGeometry width="539" height="480" as="geometry" />
        </mxCell>
        <mxCell id="QUOCif4_Dpznb4Jut9Te-1" value="&lt;b&gt;vm-auth-api &lt;/b&gt;- &amp;nbsp;Visual Mix API. It is responsible for authentication and user&#39;s management&amp;nbsp;" style="text;html=1;align=left;verticalAlign=top;spacingTop=-4;fontSize=14;labelBackgroundColor=none;whiteSpace=wrap;" parent="1" vertex="1">
          <mxGeometry x="948.5" y="220" width="449" height="46.5" as="geometry" />
        </mxCell>
        <mxCell id="QUOCif4_Dpznb4Jut9Te-2" value="&lt;b&gt;vm-security-api&amp;nbsp;&lt;/b&gt;&lt;b&gt;-&amp;nbsp;&lt;/b&gt;Visual Mix API. It the bridges between client and an external API(Acesso Digital in this case)." style="text;html=1;align=left;verticalAlign=top;spacingTop=-4;fontSize=14;labelBackgroundColor=none;whiteSpace=wrap;" parent="1" vertex="1">
          <mxGeometry x="949.5" y="284.5" width="450" height="117" as="geometry" />
        </mxCell>
        <mxCell id="QUOCif4_Dpznb4Jut9Te-3" value="&lt;span&gt;&lt;b&gt;vm-picture-api&amp;nbsp;&lt;/b&gt;&lt;/span&gt;&lt;b&gt;-&amp;nbsp;&lt;/b&gt;Visual Mix API. It is responsible to save all images before send them to external API" style="text;html=1;align=left;verticalAlign=top;spacingTop=-4;fontSize=14;labelBackgroundColor=none;whiteSpace=wrap;" parent="1" vertex="1">
          <mxGeometry x="953" y="340.5" width="450" height="49.5" as="geometry" />
        </mxCell>
        <mxCell id="QUOCif4_Dpznb4Jut9Te-4" value="&lt;b&gt;API available client&amp;nbsp;&lt;/b&gt;&lt;b&gt;- &amp;nbsp;&lt;/b&gt;Any&lt;b&gt;&amp;nbsp;&lt;/b&gt;Visual Mix API that needs security process" style="text;html=1;align=left;verticalAlign=top;spacingTop=-4;fontSize=14;labelBackgroundColor=none;whiteSpace=wrap;" parent="1" vertex="1">
          <mxGeometry x="953" y="170" width="449" height="38.5" as="geometry" />
        </mxCell>
      </root>
    </mxGraphModel>
  </diagram>
  <diagram id="MGfQ_S6StoyqCkcG_YU1" name="Simple Query Interaction">
    <mxGraphModel dx="1426" dy="842" grid="1" gridSize="10" guides="1" tooltips="1" connect="1" arrows="1" fold="1" page="1" pageScale="1" pageWidth="583" pageHeight="413" math="0" shadow="0">
      <root>
        <mxCell id="5uC7GMBCHUU2KOciokQW-0" />
        <mxCell id="5uC7GMBCHUU2KOciokQW-1" parent="5uC7GMBCHUU2KOciokQW-0" />
        <mxCell id="ccUjn54pVpTTam-t7Y5S-0" value="" style="group" parent="5uC7GMBCHUU2KOciokQW-1" vertex="1" connectable="0">
          <mxGeometry x="8" y="65.5" width="1060" height="85" as="geometry" />
        </mxCell>
        <mxCell id="ccUjn54pVpTTam-t7Y5S-1" value="Visual Mix - vm-jade-api" style="text;html=1;resizable=0;points=[];autosize=1;align=left;verticalAlign=top;spacingTop=-4;fontSize=30;fontStyle=1" parent="ccUjn54pVpTTam-t7Y5S-0" vertex="1">
          <mxGeometry x="4" width="360" height="40" as="geometry" />
        </mxCell>
        <mxCell id="ccUjn54pVpTTam-t7Y5S-2" value="Visual Mix - Security API - Simple Interaction" style="text;html=1;resizable=0;points=[];autosize=1;align=left;verticalAlign=top;spacingTop=-4;fontSize=16" parent="ccUjn54pVpTTam-t7Y5S-0" vertex="1">
          <mxGeometry x="4" y="50" width="330" height="20" as="geometry" />
        </mxCell>
        <mxCell id="ccUjn54pVpTTam-t7Y5S-3" value="" style="line;strokeWidth=2;html=1;fontSize=14;" parent="ccUjn54pVpTTam-t7Y5S-0" vertex="1">
          <mxGeometry y="75" width="1060" height="10" as="geometry" />
        </mxCell>
        <mxCell id="Xy7LeYJcgl7Ycssv4aqb-3" value="Simple Interaction &amp;nbsp;- Jade API Process - Query" style="fontStyle=0;verticalAlign=top;align=center;spacingTop=-2;fillColor=none;rounded=0;whiteSpace=wrap;html=1;strokeColor=#FF0000;strokeWidth=2;dashed=1;container=1;collapsible=0;expand=0;recursiveResize=0;fontSize=20;" parent="5uC7GMBCHUU2KOciokQW-1" vertex="1">
          <mxGeometry x="8" y="193" width="1062" height="307" as="geometry" />
        </mxCell>
        <mxCell id="Xy7LeYJcgl7Ycssv4aqb-9" value="" style="html=1;dashed=0;whitespace=wrap;shape=mxgraph.dfd.start" parent="Xy7LeYJcgl7Ycssv4aqb-3" vertex="1">
          <mxGeometry x="77" y="78" width="80" height="30" as="geometry" />
        </mxCell>
        <mxCell id="Xy7LeYJcgl7Ycssv4aqb-12" style="edgeStyle=orthogonalEdgeStyle;rounded=0;orthogonalLoop=1;jettySize=auto;html=1;exitX=0.5;exitY=0.5;exitDx=0;exitDy=15;exitPerimeter=0;entryX=0.5;entryY=0;entryDx=0;entryDy=0;" parent="Xy7LeYJcgl7Ycssv4aqb-3" source="Xy7LeYJcgl7Ycssv4aqb-9" target="Xy7LeYJcgl7Ycssv4aqb-20" edge="1">
          <mxGeometry relative="1" as="geometry">
            <mxPoint x="117" y="138" as="targetPoint" />
          </mxGeometry>
        </mxCell>
        <mxCell id="wa8sgu-IX3YlQGFSYtbL-9" style="edgeStyle=orthogonalEdgeStyle;rounded=0;orthogonalLoop=1;jettySize=auto;html=1;exitX=1;exitY=0.5;exitDx=0;exitDy=0;entryX=0;entryY=0.5;entryDx=0;entryDy=0;fontSize=11;" edge="1" parent="Xy7LeYJcgl7Ycssv4aqb-3" source="Xy7LeYJcgl7Ycssv4aqb-20" target="wa8sgu-IX3YlQGFSYtbL-8">
          <mxGeometry relative="1" as="geometry" />
        </mxCell>
        <mxCell id="Xy7LeYJcgl7Ycssv4aqb-20" value="API receives &lt;br&gt;EAN from &lt;br&gt;middleware" style="html=1;dashed=0;whitespace=wrap;" parent="Xy7LeYJcgl7Ycssv4aqb-3" vertex="1">
          <mxGeometry x="72" y="138" width="90" height="50" as="geometry" />
        </mxCell>
        <mxCell id="7Nfif4b1ss9Nq2-eNS39-247" style="edgeStyle=orthogonalEdgeStyle;rounded=0;orthogonalLoop=1;jettySize=auto;html=1;exitX=0.5;exitY=1;exitDx=0;exitDy=0;fontSize=11;" edge="1" parent="Xy7LeYJcgl7Ycssv4aqb-3" source="Xy7LeYJcgl7Ycssv4aqb-24" target="7Nfif4b1ss9Nq2-eNS39-198">
          <mxGeometry relative="1" as="geometry" />
        </mxCell>
        <mxCell id="Hwohq5ljSQf4fmVjeTPe-1" style="edgeStyle=orthogonalEdgeStyle;rounded=0;orthogonalLoop=1;jettySize=auto;html=1;exitX=0.5;exitY=0;exitDx=0;exitDy=0;entryX=0;entryY=0.5;entryDx=0;entryDy=0;fontSize=11;" edge="1" parent="Xy7LeYJcgl7Ycssv4aqb-3" source="Xy7LeYJcgl7Ycssv4aqb-24" target="Hwohq5ljSQf4fmVjeTPe-0">
          <mxGeometry relative="1" as="geometry" />
        </mxCell>
        <mxCell id="Xy7LeYJcgl7Ycssv4aqb-24" value="Product &lt;br&gt;Entinty&lt;br&gt;matched" style="shape=rhombus;html=1;dashed=0;whitespace=wrap;perimeter=rhombusPerimeter;fontSize=11;horizontal=1;verticalAlign=middle;spacing=0;" parent="Xy7LeYJcgl7Ycssv4aqb-3" vertex="1">
          <mxGeometry x="442" y="125.38" width="90" height="75" as="geometry" />
        </mxCell>
        <mxCell id="7Nfif4b1ss9Nq2-eNS39-245" style="edgeStyle=orthogonalEdgeStyle;rounded=0;orthogonalLoop=1;jettySize=auto;html=1;exitX=1;exitY=0.5;exitDx=0;exitDy=0;fontSize=11;" edge="1" parent="Xy7LeYJcgl7Ycssv4aqb-3" source="wa8sgu-IX3YlQGFSYtbL-8" target="7Nfif4b1ss9Nq2-eNS39-193">
          <mxGeometry relative="1" as="geometry" />
        </mxCell>
        <mxCell id="wa8sgu-IX3YlQGFSYtbL-8" value="Search on &lt;br&gt;vm-products-api" style="shape=manualInput;whiteSpace=wrap;html=1;dashed=0;size=15;fontSize=11;align=center;" vertex="1" parent="Xy7LeYJcgl7Ycssv4aqb-3">
          <mxGeometry x="189" y="137.75" width="100" height="50" as="geometry" />
        </mxCell>
        <mxCell id="wa8sgu-IX3YlQGFSYtbL-15" value="&lt;font style=&quot;font-size: 12px&quot;&gt;No&lt;/font&gt;" style="text;html=1;align=center;verticalAlign=middle;resizable=0;points=[];autosize=1;fontSize=20;" vertex="1" parent="Xy7LeYJcgl7Ycssv4aqb-3">
          <mxGeometry x="485" y="198.63" width="30" height="30" as="geometry" />
        </mxCell>
        <mxCell id="7Nfif4b1ss9Nq2-eNS39-250" style="edgeStyle=orthogonalEdgeStyle;rounded=0;orthogonalLoop=1;jettySize=auto;html=1;exitX=1;exitY=0.5;exitDx=0;exitDy=0;entryX=0.5;entryY=0;entryDx=0;entryDy=0;fontSize=11;" edge="1" parent="Xy7LeYJcgl7Ycssv4aqb-3" source="wa8sgu-IX3YlQGFSYtbL-27" target="7Nfif4b1ss9Nq2-eNS39-26">
          <mxGeometry relative="1" as="geometry">
            <Array as="points">
              <mxPoint x="867" y="103" />
            </Array>
          </mxGeometry>
        </mxCell>
        <mxCell id="wa8sgu-IX3YlQGFSYtbL-27" value="Create &lt;br&gt;Product Object" style="shape=parallelogram;perimeter=parallelogramPerimeter;whiteSpace=wrap;html=1;dashed=0;fontSize=11;align=center;" vertex="1" parent="Xy7LeYJcgl7Ycssv4aqb-3">
          <mxGeometry x="717" y="78" width="100" height="50" as="geometry" />
        </mxCell>
        <mxCell id="7Nfif4b1ss9Nq2-eNS39-9" value="&lt;font style=&quot;font-size: 12px&quot;&gt;Yes&lt;/font&gt;" style="text;html=1;align=center;verticalAlign=middle;resizable=0;points=[];autosize=1;fontSize=20;" vertex="1" parent="Xy7LeYJcgl7Ycssv4aqb-3">
          <mxGeometry x="485" y="72.88" width="40" height="30" as="geometry" />
        </mxCell>
        <mxCell id="7Nfif4b1ss9Nq2-eNS39-25" value="" style="html=1;dashed=0;whitespace=wrap;shape=mxgraph.dfd.start" vertex="1" parent="Xy7LeYJcgl7Ycssv4aqb-3">
          <mxGeometry x="952" y="147.88" width="80" height="30" as="geometry" />
        </mxCell>
        <mxCell id="7Nfif4b1ss9Nq2-eNS39-248" style="edgeStyle=orthogonalEdgeStyle;rounded=0;orthogonalLoop=1;jettySize=auto;html=1;exitX=1;exitY=0.5;exitDx=0;exitDy=0;fontSize=11;" edge="1" parent="Xy7LeYJcgl7Ycssv4aqb-3" source="7Nfif4b1ss9Nq2-eNS39-26" target="7Nfif4b1ss9Nq2-eNS39-25">
          <mxGeometry relative="1" as="geometry" />
        </mxCell>
        <mxCell id="7Nfif4b1ss9Nq2-eNS39-26" value="Create &lt;br&gt;response to middlewate" style="shape=parallelogram;perimeter=parallelogramPerimeter;whiteSpace=wrap;html=1;dashed=0;fontSize=11;align=center;" vertex="1" parent="Xy7LeYJcgl7Ycssv4aqb-3">
          <mxGeometry x="817" y="137.75" width="100" height="50" as="geometry" />
        </mxCell>
        <mxCell id="7Nfif4b1ss9Nq2-eNS39-196" style="edgeStyle=orthogonalEdgeStyle;rounded=0;orthogonalLoop=1;jettySize=auto;html=1;exitX=1;exitY=0.5;exitDx=0;exitDy=0;fontSize=11;" edge="1" parent="Xy7LeYJcgl7Ycssv4aqb-3" source="7Nfif4b1ss9Nq2-eNS39-193" target="Xy7LeYJcgl7Ycssv4aqb-24">
          <mxGeometry relative="1" as="geometry" />
        </mxCell>
        <mxCell id="7Nfif4b1ss9Nq2-eNS39-193" value="&lt;br&gt;&lt;br&gt;&lt;br&gt;&lt;br&gt;vm-products-api(Rotine)&lt;br&gt;FindByBarCode" style="shape=ellipse;html=1;dashed=0;whitespace=wrap;perimeter=ellipsePerimeter;fontSize=11;align=center;" vertex="1" parent="Xy7LeYJcgl7Ycssv4aqb-3">
          <mxGeometry x="342" y="148" width="30" height="30" as="geometry" />
        </mxCell>
        <mxCell id="7Nfif4b1ss9Nq2-eNS39-249" style="edgeStyle=orthogonalEdgeStyle;rounded=0;orthogonalLoop=1;jettySize=auto;html=1;exitX=1;exitY=0.5;exitDx=0;exitDy=0;fontSize=11;" edge="1" parent="Xy7LeYJcgl7Ycssv4aqb-3" source="7Nfif4b1ss9Nq2-eNS39-198" target="7Nfif4b1ss9Nq2-eNS39-26">
          <mxGeometry relative="1" as="geometry" />
        </mxCell>
        <mxCell id="7Nfif4b1ss9Nq2-eNS39-198" value="Create error message" style="shape=parallelogram;perimeter=parallelogramPerimeter;whiteSpace=wrap;html=1;dashed=0;fontSize=11;align=center;" vertex="1" parent="Xy7LeYJcgl7Ycssv4aqb-3">
          <mxGeometry x="702" y="200.38" width="100" height="50" as="geometry" />
        </mxCell>
        <mxCell id="Hwohq5ljSQf4fmVjeTPe-2" style="edgeStyle=orthogonalEdgeStyle;rounded=0;orthogonalLoop=1;jettySize=auto;html=1;exitX=1;exitY=0.5;exitDx=0;exitDy=0;fontSize=11;" edge="1" parent="Xy7LeYJcgl7Ycssv4aqb-3" source="Hwohq5ljSQf4fmVjeTPe-0" target="wa8sgu-IX3YlQGFSYtbL-27">
          <mxGeometry relative="1" as="geometry" />
        </mxCell>
        <mxCell id="Hwohq5ljSQf4fmVjeTPe-0" value="&lt;br&gt;&lt;br&gt;&lt;br&gt;&lt;br&gt;Weight product(Rotine)&lt;br&gt;Jade API" style="shape=ellipse;html=1;dashed=0;whitespace=wrap;perimeter=ellipsePerimeter;fontSize=11;align=center;" vertex="1" parent="Xy7LeYJcgl7Ycssv4aqb-3">
          <mxGeometry x="622" y="88" width="30" height="30" as="geometry" />
        </mxCell>
        <mxCell id="7Nfif4b1ss9Nq2-eNS39-148" value="Simple Interaction &amp;nbsp;- Products API Process - FindByBarcode" style="fontStyle=0;verticalAlign=top;align=center;spacingTop=-2;fillColor=none;rounded=0;whiteSpace=wrap;html=1;strokeColor=#FF0000;strokeWidth=2;dashed=1;container=1;collapsible=0;expand=0;recursiveResize=0;fontSize=20;" vertex="1" parent="5uC7GMBCHUU2KOciokQW-1">
          <mxGeometry x="8" y="530" width="1062" height="690" as="geometry" />
        </mxCell>
        <mxCell id="7Nfif4b1ss9Nq2-eNS39-149" value="" style="html=1;dashed=0;whitespace=wrap;shape=mxgraph.dfd.start" vertex="1" parent="7Nfif4b1ss9Nq2-eNS39-148">
          <mxGeometry x="77" y="122" width="80" height="30" as="geometry" />
        </mxCell>
        <mxCell id="7Nfif4b1ss9Nq2-eNS39-150" style="edgeStyle=orthogonalEdgeStyle;rounded=0;orthogonalLoop=1;jettySize=auto;html=1;exitX=0.5;exitY=0.5;exitDx=0;exitDy=15;exitPerimeter=0;entryX=0.5;entryY=0;entryDx=0;entryDy=0;" edge="1" parent="7Nfif4b1ss9Nq2-eNS39-148" source="7Nfif4b1ss9Nq2-eNS39-149" target="7Nfif4b1ss9Nq2-eNS39-152">
          <mxGeometry relative="1" as="geometry">
            <mxPoint x="117" y="182" as="targetPoint" />
          </mxGeometry>
        </mxCell>
        <mxCell id="7Nfif4b1ss9Nq2-eNS39-151" style="edgeStyle=orthogonalEdgeStyle;rounded=0;orthogonalLoop=1;jettySize=auto;html=1;exitX=1;exitY=0.5;exitDx=0;exitDy=0;entryX=0;entryY=0.5;entryDx=0;entryDy=0;fontSize=11;" edge="1" parent="7Nfif4b1ss9Nq2-eNS39-148" source="7Nfif4b1ss9Nq2-eNS39-152" target="7Nfif4b1ss9Nq2-eNS39-159">
          <mxGeometry relative="1" as="geometry" />
        </mxCell>
        <mxCell id="7Nfif4b1ss9Nq2-eNS39-152" value="API receives &lt;br&gt;EAN from &lt;br&gt;API" style="html=1;dashed=0;whitespace=wrap;" vertex="1" parent="7Nfif4b1ss9Nq2-eNS39-148">
          <mxGeometry x="72" y="182" width="90" height="50" as="geometry" />
        </mxCell>
        <mxCell id="7Nfif4b1ss9Nq2-eNS39-153" style="edgeStyle=orthogonalEdgeStyle;rounded=0;orthogonalLoop=1;jettySize=auto;html=1;exitX=1;exitY=0.5;exitDx=0;exitDy=0;entryX=0;entryY=0.75;entryDx=0;entryDy=0;fontSize=11;" edge="1" parent="7Nfif4b1ss9Nq2-eNS39-148" source="7Nfif4b1ss9Nq2-eNS39-154">
          <mxGeometry relative="1" as="geometry">
            <mxPoint x="489" y="107" as="targetPoint" />
          </mxGeometry>
        </mxCell>
        <mxCell id="7Nfif4b1ss9Nq2-eNS39-154" value="&lt;span style=&quot;font-size: 11px&quot;&gt;&amp;nbsp;EAN first digit &lt;br style=&quot;font-size: 11px&quot;&gt;equals 2&lt;/span&gt;" style="shape=rhombus;html=1;dashed=0;whitespace=wrap;perimeter=rhombusPerimeter;fontSize=11;horizontal=1;verticalAlign=middle;spacing=0;" vertex="1" parent="7Nfif4b1ss9Nq2-eNS39-148">
          <mxGeometry x="349" y="69.5" width="90" height="75" as="geometry" />
        </mxCell>
        <mxCell id="7Nfif4b1ss9Nq2-eNS39-155" style="edgeStyle=orthogonalEdgeStyle;rounded=0;orthogonalLoop=1;jettySize=auto;html=1;exitX=1;exitY=0.5;exitDx=0;exitDy=0;fontSize=11;" edge="1" parent="7Nfif4b1ss9Nq2-eNS39-148" source="7Nfif4b1ss9Nq2-eNS39-157" target="7Nfif4b1ss9Nq2-eNS39-167">
          <mxGeometry relative="1" as="geometry" />
        </mxCell>
        <mxCell id="Hwohq5ljSQf4fmVjeTPe-12" style="edgeStyle=orthogonalEdgeStyle;rounded=0;orthogonalLoop=1;jettySize=auto;html=1;exitX=1;exitY=1;exitDx=0;exitDy=0;entryX=1;entryY=0.5;entryDx=0;entryDy=0;fontSize=11;" edge="1" parent="7Nfif4b1ss9Nq2-eNS39-148" source="7Nfif4b1ss9Nq2-eNS39-157" target="7Nfif4b1ss9Nq2-eNS39-172">
          <mxGeometry relative="1" as="geometry" />
        </mxCell>
        <mxCell id="7Nfif4b1ss9Nq2-eNS39-157" value="Â EANÂ &#xa;length is &#xa;equals 22&#xa;" style="shape=rhombus;dashed=0;whitespace=wrap;perimeter=rhombusPerimeter;fontSize=11;horizontal=1;verticalAlign=middle;spacing=0;align=center;" vertex="1" parent="7Nfif4b1ss9Nq2-eNS39-148">
          <mxGeometry x="629" y="57" width="90" height="75" as="geometry" />
        </mxCell>
        <mxCell id="7Nfif4b1ss9Nq2-eNS39-158" style="edgeStyle=orthogonalEdgeStyle;rounded=0;orthogonalLoop=1;jettySize=auto;html=1;exitX=0.5;exitY=1;exitDx=0;exitDy=0;entryX=0.5;entryY=0;entryDx=0;entryDy=0;fontSize=11;" edge="1" parent="7Nfif4b1ss9Nq2-eNS39-148" source="7Nfif4b1ss9Nq2-eNS39-159" target="7Nfif4b1ss9Nq2-eNS39-162">
          <mxGeometry relative="1" as="geometry" />
        </mxCell>
        <mxCell id="7Nfif4b1ss9Nq2-eNS39-159" value="Search on DB" style="shape=manualInput;whiteSpace=wrap;html=1;dashed=0;size=15;fontSize=11;align=center;" vertex="1" parent="7Nfif4b1ss9Nq2-eNS39-148">
          <mxGeometry x="189" y="181.75" width="100" height="50" as="geometry" />
        </mxCell>
        <mxCell id="7Nfif4b1ss9Nq2-eNS39-160" style="edgeStyle=orthogonalEdgeStyle;rounded=0;orthogonalLoop=1;jettySize=auto;html=1;exitX=1;exitY=0.5;exitDx=0;exitDy=0;entryX=0.5;entryY=1;entryDx=0;entryDy=0;fontSize=11;" edge="1" parent="7Nfif4b1ss9Nq2-eNS39-148" source="7Nfif4b1ss9Nq2-eNS39-162" target="7Nfif4b1ss9Nq2-eNS39-154">
          <mxGeometry relative="1" as="geometry" />
        </mxCell>
        <mxCell id="7Nfif4b1ss9Nq2-eNS39-161" style="edgeStyle=orthogonalEdgeStyle;rounded=0;orthogonalLoop=1;jettySize=auto;html=1;exitX=0.5;exitY=1;exitDx=0;exitDy=0;entryX=0;entryY=0.5;entryDx=0;entryDy=0;fontSize=11;" edge="1" parent="7Nfif4b1ss9Nq2-eNS39-148" source="7Nfif4b1ss9Nq2-eNS39-162" target="7Nfif4b1ss9Nq2-eNS39-172">
          <mxGeometry relative="1" as="geometry">
            <Array as="points">
              <mxPoint x="244" y="525" />
            </Array>
          </mxGeometry>
        </mxCell>
        <mxCell id="7Nfif4b1ss9Nq2-eNS39-162" value="&lt;span style=&quot;font-size: 11px&quot;&gt;&amp;nbsp;EAN matches&lt;/span&gt;" style="shape=rhombus;html=1;dashed=0;whitespace=wrap;perimeter=rhombusPerimeter;fontSize=11;horizontal=1;verticalAlign=middle;spacing=0;" vertex="1" parent="7Nfif4b1ss9Nq2-eNS39-148">
          <mxGeometry x="199" y="262.75" width="90" height="75" as="geometry" />
        </mxCell>
        <mxCell id="7Nfif4b1ss9Nq2-eNS39-163" value="&lt;font style=&quot;font-size: 12px&quot;&gt;No&lt;/font&gt;" style="text;html=1;align=center;verticalAlign=middle;resizable=0;points=[];autosize=1;fontSize=20;" vertex="1" parent="7Nfif4b1ss9Nq2-eNS39-148">
          <mxGeometry x="286" y="272.75" width="30" height="30" as="geometry" />
        </mxCell>
        <mxCell id="7Nfif4b1ss9Nq2-eNS39-166" style="edgeStyle=orthogonalEdgeStyle;rounded=0;orthogonalLoop=1;jettySize=auto;html=1;exitX=1;exitY=0.5;exitDx=0;exitDy=0;entryX=0;entryY=0.5;entryDx=0;entryDy=0;fontSize=11;" edge="1" parent="7Nfif4b1ss9Nq2-eNS39-148" source="7Nfif4b1ss9Nq2-eNS39-167" target="7Nfif4b1ss9Nq2-eNS39-170">
          <mxGeometry relative="1" as="geometry" />
        </mxCell>
        <mxCell id="7Nfif4b1ss9Nq2-eNS39-167" value="&lt;br&gt;Read expiration date,&amp;nbsp;position z to w" style="shape=manualInput;whiteSpace=wrap;html=1;dashed=0;size=15;fontSize=11;align=center;" vertex="1" parent="7Nfif4b1ss9Nq2-eNS39-148">
          <mxGeometry x="749" y="69.5" width="100" height="50" as="geometry" />
        </mxCell>
        <mxCell id="7Nfif4b1ss9Nq2-eNS39-169" style="edgeStyle=orthogonalEdgeStyle;rounded=0;orthogonalLoop=1;jettySize=auto;html=1;exitX=1;exitY=0.5;exitDx=0;exitDy=0;entryX=1;entryY=0.5;entryDx=0;entryDy=0;fontSize=11;" edge="1" parent="7Nfif4b1ss9Nq2-eNS39-148" source="7Nfif4b1ss9Nq2-eNS39-170" target="7Nfif4b1ss9Nq2-eNS39-185">
          <mxGeometry relative="1" as="geometry">
            <Array as="points">
              <mxPoint x="994" y="94.75" />
              <mxPoint x="994" y="362.75" />
            </Array>
          </mxGeometry>
        </mxCell>
        <mxCell id="Hwohq5ljSQf4fmVjeTPe-13" style="edgeStyle=orthogonalEdgeStyle;rounded=0;orthogonalLoop=1;jettySize=auto;html=1;exitX=1;exitY=1;exitDx=0;exitDy=0;entryX=1;entryY=0.75;entryDx=0;entryDy=0;fontSize=11;" edge="1" parent="7Nfif4b1ss9Nq2-eNS39-148" source="7Nfif4b1ss9Nq2-eNS39-170" target="7Nfif4b1ss9Nq2-eNS39-172">
          <mxGeometry relative="1" as="geometry">
            <Array as="points">
              <mxPoint x="952" y="380" />
              <mxPoint x="762" y="380" />
              <mxPoint x="762" y="464" />
            </Array>
          </mxGeometry>
        </mxCell>
        <mxCell id="7Nfif4b1ss9Nq2-eNS39-170" value="Â EANÂ &#xa;expiraded" style="shape=rhombus;dashed=0;whitespace=wrap;perimeter=rhombusPerimeter;fontSize=11;horizontal=1;verticalAlign=middle;spacing=0;align=center;" vertex="1" parent="7Nfif4b1ss9Nq2-eNS39-148">
          <mxGeometry x="884" y="57" width="90" height="75" as="geometry" />
        </mxCell>
        <mxCell id="7Nfif4b1ss9Nq2-eNS39-171" style="edgeStyle=orthogonalEdgeStyle;rounded=0;orthogonalLoop=1;jettySize=auto;html=1;exitX=0.5;exitY=1;exitDx=0;exitDy=0;entryX=0.5;entryY=0;entryDx=0;entryDy=0;fontSize=11;" edge="1" parent="7Nfif4b1ss9Nq2-eNS39-148" source="7Nfif4b1ss9Nq2-eNS39-172" target="7Nfif4b1ss9Nq2-eNS39-189">
          <mxGeometry relative="1" as="geometry" />
        </mxCell>
        <mxCell id="7Nfif4b1ss9Nq2-eNS39-172" value="Create Product Object" style="shape=parallelogram;perimeter=parallelogramPerimeter;whiteSpace=wrap;html=1;dashed=0;fontSize=11;align=center;" vertex="1" parent="7Nfif4b1ss9Nq2-eNS39-148">
          <mxGeometry x="575" y="430" width="100" height="50" as="geometry" />
        </mxCell>
        <mxCell id="Hwohq5ljSQf4fmVjeTPe-8" style="edgeStyle=orthogonalEdgeStyle;rounded=0;orthogonalLoop=1;jettySize=auto;html=1;exitX=1;exitY=0.5;exitDx=0;exitDy=0;entryX=0;entryY=0.5;entryDx=0;entryDy=0;fontSize=11;" edge="1" parent="7Nfif4b1ss9Nq2-eNS39-148" source="7Nfif4b1ss9Nq2-eNS39-174" target="7Nfif4b1ss9Nq2-eNS39-177">
          <mxGeometry relative="1" as="geometry" />
        </mxCell>
        <mxCell id="7Nfif4b1ss9Nq2-eNS39-174" value="Search on &lt;br&gt;DB" style="shape=manualInput;whiteSpace=wrap;html=1;dashed=0;size=15;fontSize=11;align=center;" vertex="1" parent="7Nfif4b1ss9Nq2-eNS39-148">
          <mxGeometry x="409" y="275.25" width="100" height="50" as="geometry" />
        </mxCell>
        <mxCell id="Hwohq5ljSQf4fmVjeTPe-6" style="edgeStyle=orthogonalEdgeStyle;rounded=0;orthogonalLoop=1;jettySize=auto;html=1;exitX=0.5;exitY=0;exitDx=0;exitDy=0;entryX=0.5;entryY=1;entryDx=0;entryDy=0;fontSize=11;" edge="1" parent="7Nfif4b1ss9Nq2-eNS39-148" source="7Nfif4b1ss9Nq2-eNS39-177" target="7Nfif4b1ss9Nq2-eNS39-157">
          <mxGeometry relative="1" as="geometry" />
        </mxCell>
        <mxCell id="Hwohq5ljSQf4fmVjeTPe-14" style="edgeStyle=orthogonalEdgeStyle;rounded=0;orthogonalLoop=1;jettySize=auto;html=1;exitX=0.5;exitY=1;exitDx=0;exitDy=0;entryX=0.5;entryY=0;entryDx=0;entryDy=0;fontSize=11;" edge="1" parent="7Nfif4b1ss9Nq2-eNS39-148" source="7Nfif4b1ss9Nq2-eNS39-177" target="7Nfif4b1ss9Nq2-eNS39-185">
          <mxGeometry relative="1" as="geometry" />
        </mxCell>
        <mxCell id="7Nfif4b1ss9Nq2-eNS39-177" value="&lt;span style=&quot;font-size: 11px&quot;&gt;&amp;nbsp;EAN matches&lt;/span&gt;" style="shape=rhombus;html=1;dashed=0;whitespace=wrap;perimeter=rhombusPerimeter;fontSize=11;horizontal=1;verticalAlign=middle;spacing=0;" vertex="1" parent="7Nfif4b1ss9Nq2-eNS39-148">
          <mxGeometry x="552" y="262.75" width="90" height="75" as="geometry" />
        </mxCell>
        <mxCell id="7Nfif4b1ss9Nq2-eNS39-178" value="&lt;font style=&quot;font-size: 12px&quot;&gt;Yes&lt;/font&gt;" style="text;html=1;align=center;verticalAlign=middle;resizable=0;points=[];autosize=1;fontSize=20;" vertex="1" parent="7Nfif4b1ss9Nq2-eNS39-148">
          <mxGeometry x="239" y="337.75" width="40" height="30" as="geometry" />
        </mxCell>
        <mxCell id="7Nfif4b1ss9Nq2-eNS39-179" value="&lt;font style=&quot;font-size: 12px&quot;&gt;Yes&lt;/font&gt;" style="text;html=1;align=center;verticalAlign=middle;resizable=0;points=[];autosize=1;fontSize=20;" vertex="1" parent="7Nfif4b1ss9Nq2-eNS39-148">
          <mxGeometry x="439" y="79.5" width="40" height="30" as="geometry" />
        </mxCell>
        <mxCell id="7Nfif4b1ss9Nq2-eNS39-180" value="&lt;font style=&quot;font-size: 12px&quot;&gt;Yes&lt;/font&gt;" style="text;html=1;align=center;verticalAlign=middle;resizable=0;points=[];autosize=1;fontSize=20;" vertex="1" parent="7Nfif4b1ss9Nq2-eNS39-148">
          <mxGeometry x="709" y="69.5" width="40" height="30" as="geometry" />
        </mxCell>
        <mxCell id="7Nfif4b1ss9Nq2-eNS39-181" value="&lt;font style=&quot;font-size: 12px&quot;&gt;No&lt;/font&gt;" style="text;html=1;align=center;verticalAlign=middle;resizable=0;points=[];autosize=1;fontSize=20;" vertex="1" parent="7Nfif4b1ss9Nq2-eNS39-148">
          <mxGeometry x="832" y="27" width="30" height="30" as="geometry" />
        </mxCell>
        <mxCell id="7Nfif4b1ss9Nq2-eNS39-183" value="&lt;font style=&quot;font-size: 12px&quot;&gt;No&lt;/font&gt;" style="text;html=1;align=center;verticalAlign=middle;resizable=0;points=[];autosize=1;fontSize=20;" vertex="1" parent="7Nfif4b1ss9Nq2-eNS39-148">
          <mxGeometry x="899" y="128" width="30" height="30" as="geometry" />
        </mxCell>
        <mxCell id="7Nfif4b1ss9Nq2-eNS39-184" style="edgeStyle=orthogonalEdgeStyle;rounded=0;orthogonalLoop=1;jettySize=auto;html=1;exitX=0.5;exitY=1;exitDx=0;exitDy=0;entryX=1;entryY=0.25;entryDx=0;entryDy=0;fontSize=11;" edge="1" parent="7Nfif4b1ss9Nq2-eNS39-148" source="7Nfif4b1ss9Nq2-eNS39-185" target="7Nfif4b1ss9Nq2-eNS39-192">
          <mxGeometry relative="1" as="geometry">
            <Array as="points">
              <mxPoint x="819" y="613" />
            </Array>
          </mxGeometry>
        </mxCell>
        <mxCell id="7Nfif4b1ss9Nq2-eNS39-185" value="Create error message" style="shape=parallelogram;perimeter=parallelogramPerimeter;whiteSpace=wrap;html=1;dashed=0;fontSize=11;align=center;" vertex="1" parent="7Nfif4b1ss9Nq2-eNS39-148">
          <mxGeometry x="884" y="450" width="100" height="50" as="geometry" />
        </mxCell>
        <mxCell id="7Nfif4b1ss9Nq2-eNS39-186" value="&lt;font style=&quot;font-size: 12px&quot;&gt;Yes&lt;/font&gt;" style="text;html=1;align=center;verticalAlign=middle;resizable=0;points=[];autosize=1;fontSize=20;" vertex="1" parent="7Nfif4b1ss9Nq2-eNS39-148">
          <mxGeometry x="989" y="89.5" width="40" height="30" as="geometry" />
        </mxCell>
        <mxCell id="7Nfif4b1ss9Nq2-eNS39-188" style="edgeStyle=orthogonalEdgeStyle;rounded=0;orthogonalLoop=1;jettySize=auto;html=1;exitX=1;exitY=0.5;exitDx=0;exitDy=0;entryX=0;entryY=0.25;entryDx=0;entryDy=0;fontSize=11;" edge="1" parent="7Nfif4b1ss9Nq2-eNS39-148" source="7Nfif4b1ss9Nq2-eNS39-189" target="7Nfif4b1ss9Nq2-eNS39-192">
          <mxGeometry relative="1" as="geometry" />
        </mxCell>
        <mxCell id="7Nfif4b1ss9Nq2-eNS39-189" value="&lt;br&gt;&lt;br&gt;&lt;br&gt;&lt;br&gt;Weight product(Rotine)&lt;br&gt;vm-products-api" style="shape=ellipse;html=1;dashed=0;whitespace=wrap;perimeter=ellipsePerimeter;fontSize=11;align=center;" vertex="1" parent="7Nfif4b1ss9Nq2-eNS39-148">
          <mxGeometry x="384" y="600" width="30" height="30" as="geometry" />
        </mxCell>
        <mxCell id="7Nfif4b1ss9Nq2-eNS39-190" value="" style="html=1;dashed=0;whitespace=wrap;shape=mxgraph.dfd.start" vertex="1" parent="7Nfif4b1ss9Nq2-eNS39-148">
          <mxGeometry x="949" y="640" width="80" height="30" as="geometry" />
        </mxCell>
        <mxCell id="7Nfif4b1ss9Nq2-eNS39-191" style="edgeStyle=orthogonalEdgeStyle;rounded=0;orthogonalLoop=1;jettySize=auto;html=1;exitX=0.5;exitY=1;exitDx=0;exitDy=0;entryX=0.5;entryY=0.5;entryDx=0;entryDy=-15;entryPerimeter=0;fontSize=11;" edge="1" parent="7Nfif4b1ss9Nq2-eNS39-148" source="7Nfif4b1ss9Nq2-eNS39-192" target="7Nfif4b1ss9Nq2-eNS39-190">
          <mxGeometry relative="1" as="geometry" />
        </mxCell>
        <mxCell id="7Nfif4b1ss9Nq2-eNS39-192" value="Create &lt;br&gt;response to middlewate" style="shape=parallelogram;perimeter=parallelogramPerimeter;whiteSpace=wrap;html=1;dashed=0;fontSize=11;align=center;" vertex="1" parent="7Nfif4b1ss9Nq2-eNS39-148">
          <mxGeometry x="522" y="599" width="100" height="50" as="geometry" />
        </mxCell>
        <mxCell id="Hwohq5ljSQf4fmVjeTPe-5" style="edgeStyle=orthogonalEdgeStyle;rounded=0;orthogonalLoop=1;jettySize=auto;html=1;exitX=0.5;exitY=1;exitDx=0;exitDy=0;fontSize=11;" edge="1" parent="5uC7GMBCHUU2KOciokQW-1" source="Hwohq5ljSQf4fmVjeTPe-3" target="7Nfif4b1ss9Nq2-eNS39-174">
          <mxGeometry relative="1" as="geometry" />
        </mxCell>
        <mxCell id="Hwohq5ljSQf4fmVjeTPe-3" value="&lt;br&gt;Read internal EAN&lt;br&gt;position, x to y" style="shape=manualInput;whiteSpace=wrap;html=1;dashed=0;size=15;fontSize=11;align=center;" vertex="1" parent="5uC7GMBCHUU2KOciokQW-1">
          <mxGeometry x="497" y="599.5" width="100" height="50" as="geometry" />
        </mxCell>
        <mxCell id="7RX9u6J-1jgTOUHh86-Q-0" value="Simple Interaction &amp;nbsp;- Products API Process -Weight Product" style="fontStyle=0;verticalAlign=top;align=center;spacingTop=-2;fillColor=none;rounded=0;whiteSpace=wrap;html=1;strokeColor=#FF0000;strokeWidth=2;dashed=1;container=1;collapsible=0;expand=0;recursiveResize=0;fontSize=20;" vertex="1" parent="5uC7GMBCHUU2KOciokQW-1">
          <mxGeometry x="6" y="1250" width="1062" height="430" as="geometry" />
        </mxCell>
        <mxCell id="7RX9u6J-1jgTOUHh86-Q-1" value="" style="html=1;dashed=0;whitespace=wrap;shape=mxgraph.dfd.start" vertex="1" parent="7RX9u6J-1jgTOUHh86-Q-0">
          <mxGeometry x="72" y="105.75" width="80" height="30" as="geometry" />
        </mxCell>
        <mxCell id="7RX9u6J-1jgTOUHh86-Q-2" style="edgeStyle=orthogonalEdgeStyle;rounded=0;orthogonalLoop=1;jettySize=auto;html=1;exitX=0.5;exitY=0.5;exitDx=0;exitDy=15;exitPerimeter=0;entryX=0.5;entryY=0;entryDx=0;entryDy=0;" edge="1" parent="7RX9u6J-1jgTOUHh86-Q-0" source="7RX9u6J-1jgTOUHh86-Q-1" target="7RX9u6J-1jgTOUHh86-Q-10">
          <mxGeometry relative="1" as="geometry">
            <mxPoint x="112" y="169.5" as="targetPoint" />
          </mxGeometry>
        </mxCell>
        <mxCell id="7RX9u6J-1jgTOUHh86-Q-3" value="" style="html=1;dashed=0;whitespace=wrap;shape=mxgraph.dfd.start" vertex="1" parent="7RX9u6J-1jgTOUHh86-Q-0">
          <mxGeometry x="604" y="210" width="80" height="30" as="geometry" />
        </mxCell>
        <mxCell id="7RX9u6J-1jgTOUHh86-Q-4" style="edgeStyle=orthogonalEdgeStyle;rounded=0;orthogonalLoop=1;jettySize=auto;html=1;exitX=0.5;exitY=0;exitDx=0;exitDy=0;entryX=0;entryY=0.5;entryDx=0;entryDy=0;fontSize=11;" edge="1" parent="7RX9u6J-1jgTOUHh86-Q-0" source="7RX9u6J-1jgTOUHh86-Q-6" target="7RX9u6J-1jgTOUHh86-Q-12">
          <mxGeometry relative="1" as="geometry">
            <mxPoint x="354" y="117.5" as="targetPoint" />
          </mxGeometry>
        </mxCell>
        <mxCell id="7RX9u6J-1jgTOUHh86-Q-5" style="edgeStyle=orthogonalEdgeStyle;rounded=0;orthogonalLoop=1;jettySize=auto;html=1;exitX=0.5;exitY=1;exitDx=0;exitDy=0;fontSize=11;" edge="1" parent="7RX9u6J-1jgTOUHh86-Q-0" source="7RX9u6J-1jgTOUHh86-Q-6" target="7RX9u6J-1jgTOUHh86-Q-14">
          <mxGeometry relative="1" as="geometry" />
        </mxCell>
        <mxCell id="7RX9u6J-1jgTOUHh86-Q-6" value="peso_variavel&lt;br&gt;&amp;nbsp;or&amp;nbsp;qtd_decimal&amp;nbsp;&lt;br&gt;equals 0" style="shape=rhombus;html=1;dashed=0;whitespace=wrap;perimeter=rhombusPerimeter;fontSize=11;horizontal=1;verticalAlign=middle;spacing=0;" vertex="1" parent="7RX9u6J-1jgTOUHh86-Q-0">
          <mxGeometry x="212" y="168.75" width="111" height="92.5" as="geometry" />
        </mxCell>
        <mxCell id="7RX9u6J-1jgTOUHh86-Q-7" value="&lt;font style=&quot;font-size: 12px&quot;&gt;Yes&lt;/font&gt;" style="text;html=1;align=center;verticalAlign=middle;resizable=0;points=[];autosize=1;fontSize=20;" vertex="1" parent="7RX9u6J-1jgTOUHh86-Q-0">
          <mxGeometry x="262" y="142.5" width="40" height="30" as="geometry" />
        </mxCell>
        <mxCell id="7RX9u6J-1jgTOUHh86-Q-8" value="&lt;font style=&quot;font-size: 12px&quot;&gt;No&lt;/font&gt;" style="text;html=1;align=center;verticalAlign=middle;resizable=0;points=[];autosize=1;fontSize=20;" vertex="1" parent="7RX9u6J-1jgTOUHh86-Q-0">
          <mxGeometry x="262" y="250" width="30" height="30" as="geometry" />
        </mxCell>
        <mxCell id="7RX9u6J-1jgTOUHh86-Q-9" style="edgeStyle=orthogonalEdgeStyle;rounded=0;orthogonalLoop=1;jettySize=auto;html=1;exitX=1;exitY=0.5;exitDx=0;exitDy=0;entryX=0;entryY=0.5;entryDx=0;entryDy=0;fontSize=11;" edge="1" parent="7RX9u6J-1jgTOUHh86-Q-0" source="7RX9u6J-1jgTOUHh86-Q-10" target="7RX9u6J-1jgTOUHh86-Q-6">
          <mxGeometry relative="1" as="geometry" />
        </mxCell>
        <mxCell id="7RX9u6J-1jgTOUHh86-Q-10" value="Receives Product Entity" style="shape=document;whiteSpace=wrap;html=1;boundedLbl=1;dashed=0;flipH=1;fontSize=11;align=center;" vertex="1" parent="7RX9u6J-1jgTOUHh86-Q-0">
          <mxGeometry x="62" y="180" width="100" height="70" as="geometry" />
        </mxCell>
        <mxCell id="7RX9u6J-1jgTOUHh86-Q-11" style="edgeStyle=orthogonalEdgeStyle;rounded=0;orthogonalLoop=1;jettySize=auto;html=1;exitX=1;exitY=0.5;exitDx=0;exitDy=0;entryX=0.5;entryY=0;entryDx=0;entryDy=0;fontSize=11;" edge="1" parent="7RX9u6J-1jgTOUHh86-Q-0" source="7RX9u6J-1jgTOUHh86-Q-12" target="7RX9u6J-1jgTOUHh86-Q-16">
          <mxGeometry relative="1" as="geometry" />
        </mxCell>
        <mxCell id="7RX9u6J-1jgTOUHh86-Q-12" value="&lt;font style=&quot;font-size: 11px&quot;&gt;Set attribute &lt;br&gt;obligatory&lt;br&gt;&lt;span style=&quot;color: rgba(0 , 0 , 0 , 0.87) ; font-family: &amp;#34;arial&amp;#34; , sans-serif ; text-align: left ; background-color: rgb(255 , 255 , 255)&quot;&gt;measure true&lt;/span&gt;&lt;/font&gt;" style="shape=parallelogram;perimeter=parallelogramPerimeter;whiteSpace=wrap;html=1;dashed=0;fontSize=11;align=center;" vertex="1" parent="7RX9u6J-1jgTOUHh86-Q-0">
          <mxGeometry x="362" y="122.5" width="100" height="50" as="geometry" />
        </mxCell>
        <mxCell id="7RX9u6J-1jgTOUHh86-Q-13" style="edgeStyle=orthogonalEdgeStyle;rounded=0;orthogonalLoop=1;jettySize=auto;html=1;exitX=1;exitY=0.75;exitDx=0;exitDy=0;entryX=0.5;entryY=1;entryDx=0;entryDy=0;fontSize=11;" edge="1" parent="7RX9u6J-1jgTOUHh86-Q-0" source="7RX9u6J-1jgTOUHh86-Q-14" target="7RX9u6J-1jgTOUHh86-Q-16">
          <mxGeometry relative="1" as="geometry" />
        </mxCell>
        <mxCell id="7RX9u6J-1jgTOUHh86-Q-14" value="Set attribute&amp;nbsp;&lt;br&gt;obligatory&lt;br&gt;&lt;span style=&quot;color: rgba(0 , 0 , 0 , 0.87) ; font-family: &amp;#34;arial&amp;#34; , sans-serif ; text-align: left ; background-color: rgb(255 , 255 , 255)&quot;&gt;measure false&lt;/span&gt;" style="shape=parallelogram;perimeter=parallelogramPerimeter;whiteSpace=wrap;html=1;dashed=0;fontSize=11;align=center;" vertex="1" parent="7RX9u6J-1jgTOUHh86-Q-0">
          <mxGeometry x="352" y="261.25" width="100" height="50" as="geometry" />
        </mxCell>
        <mxCell id="7RX9u6J-1jgTOUHh86-Q-15" style="edgeStyle=orthogonalEdgeStyle;rounded=0;orthogonalLoop=1;jettySize=auto;html=1;exitX=1;exitY=0.5;exitDx=0;exitDy=0;entryX=0;entryY=0.5;entryDx=0;entryDy=0;entryPerimeter=0;fontSize=11;" edge="1" parent="7RX9u6J-1jgTOUHh86-Q-0" source="7RX9u6J-1jgTOUHh86-Q-16" target="7RX9u6J-1jgTOUHh86-Q-3">
          <mxGeometry relative="1" as="geometry" />
        </mxCell>
        <mxCell id="7RX9u6J-1jgTOUHh86-Q-16" value="Entity Product&lt;br&gt;with new&lt;br&gt;&amp;nbsp;attribute&amp;nbsp;" style="shape=parallelogram;perimeter=parallelogramPerimeter;whiteSpace=wrap;html=1;dashed=0;fontSize=11;align=center;" vertex="1" parent="7RX9u6J-1jgTOUHh86-Q-0">
          <mxGeometry x="492" y="200" width="100" height="50" as="geometry" />
        </mxCell>
      </root>
    </mxGraphModel>
  </diagram>
  <diagram name="Copy of Simple Interaction" id="DF2k5BVZZJ7Fm-ianyhk">
    <mxGraphModel dx="2037" dy="1203" grid="1" gridSize="10" guides="1" tooltips="1" connect="1" arrows="1" fold="1" page="1" pageScale="1" pageWidth="583" pageHeight="413" math="0" shadow="0">
      <root>
        <mxCell id="A6Q7QGBYelO12TpGn7Jf-0" />
        <mxCell id="A6Q7QGBYelO12TpGn7Jf-1" parent="A6Q7QGBYelO12TpGn7Jf-0" />
        <mxCell id="A6Q7QGBYelO12TpGn7Jf-2" value="" style="group" vertex="1" connectable="0" parent="A6Q7QGBYelO12TpGn7Jf-1">
          <mxGeometry x="8" y="65.5" width="1060" height="85" as="geometry" />
        </mxCell>
        <mxCell id="A6Q7QGBYelO12TpGn7Jf-3" value="Visual Mix - vm-jade-api" style="text;html=1;resizable=0;points=[];autosize=1;align=left;verticalAlign=top;spacingTop=-4;fontSize=30;fontStyle=1" vertex="1" parent="A6Q7QGBYelO12TpGn7Jf-2">
          <mxGeometry x="4" width="360" height="40" as="geometry" />
        </mxCell>
        <mxCell id="A6Q7QGBYelO12TpGn7Jf-4" value="Visual Mix - Security API - Simple Interaction" style="text;html=1;resizable=0;points=[];autosize=1;align=left;verticalAlign=top;spacingTop=-4;fontSize=16" vertex="1" parent="A6Q7QGBYelO12TpGn7Jf-2">
          <mxGeometry x="4" y="50" width="330" height="20" as="geometry" />
        </mxCell>
        <mxCell id="A6Q7QGBYelO12TpGn7Jf-5" value="" style="line;strokeWidth=2;html=1;fontSize=14;" vertex="1" parent="A6Q7QGBYelO12TpGn7Jf-2">
          <mxGeometry y="75" width="1060" height="10" as="geometry" />
        </mxCell>
        <mxCell id="A6Q7QGBYelO12TpGn7Jf-6" value="Simple Interaction &amp;nbsp;- Jade API Process - Query" style="fontStyle=0;verticalAlign=top;align=center;spacingTop=-2;fillColor=none;rounded=0;whiteSpace=wrap;html=1;strokeColor=#FF0000;strokeWidth=2;dashed=1;container=1;collapsible=0;expand=0;recursiveResize=0;fontSize=20;" vertex="1" parent="A6Q7QGBYelO12TpGn7Jf-1">
          <mxGeometry x="8" y="193" width="1062" height="307" as="geometry" />
        </mxCell>
        <mxCell id="A6Q7QGBYelO12TpGn7Jf-7" value="" style="html=1;dashed=0;whitespace=wrap;shape=mxgraph.dfd.start" vertex="1" parent="A6Q7QGBYelO12TpGn7Jf-6">
          <mxGeometry x="77" y="78" width="80" height="30" as="geometry" />
        </mxCell>
        <mxCell id="A6Q7QGBYelO12TpGn7Jf-8" style="edgeStyle=orthogonalEdgeStyle;rounded=0;orthogonalLoop=1;jettySize=auto;html=1;exitX=0.5;exitY=0.5;exitDx=0;exitDy=15;exitPerimeter=0;entryX=0.5;entryY=0;entryDx=0;entryDy=0;" edge="1" parent="A6Q7QGBYelO12TpGn7Jf-6" source="A6Q7QGBYelO12TpGn7Jf-7" target="A6Q7QGBYelO12TpGn7Jf-10">
          <mxGeometry relative="1" as="geometry">
            <mxPoint x="117" y="138" as="targetPoint" />
          </mxGeometry>
        </mxCell>
        <mxCell id="A6Q7QGBYelO12TpGn7Jf-9" style="edgeStyle=orthogonalEdgeStyle;rounded=0;orthogonalLoop=1;jettySize=auto;html=1;exitX=1;exitY=0.5;exitDx=0;exitDy=0;entryX=0;entryY=0.5;entryDx=0;entryDy=0;fontSize=11;" edge="1" parent="A6Q7QGBYelO12TpGn7Jf-6" source="A6Q7QGBYelO12TpGn7Jf-10" target="A6Q7QGBYelO12TpGn7Jf-15">
          <mxGeometry relative="1" as="geometry" />
        </mxCell>
        <mxCell id="A6Q7QGBYelO12TpGn7Jf-10" value="API receives &lt;br&gt;EAN from &lt;br&gt;middleware" style="html=1;dashed=0;whitespace=wrap;" vertex="1" parent="A6Q7QGBYelO12TpGn7Jf-6">
          <mxGeometry x="72" y="138" width="90" height="50" as="geometry" />
        </mxCell>
        <mxCell id="A6Q7QGBYelO12TpGn7Jf-11" style="edgeStyle=orthogonalEdgeStyle;rounded=0;orthogonalLoop=1;jettySize=auto;html=1;exitX=0.5;exitY=0;exitDx=0;exitDy=0;entryX=0;entryY=0.5;entryDx=0;entryDy=0;fontSize=11;" edge="1" parent="A6Q7QGBYelO12TpGn7Jf-6" source="A6Q7QGBYelO12TpGn7Jf-13" target="A6Q7QGBYelO12TpGn7Jf-18">
          <mxGeometry relative="1" as="geometry" />
        </mxCell>
        <mxCell id="A6Q7QGBYelO12TpGn7Jf-12" style="edgeStyle=orthogonalEdgeStyle;rounded=0;orthogonalLoop=1;jettySize=auto;html=1;exitX=0.5;exitY=1;exitDx=0;exitDy=0;fontSize=11;" edge="1" parent="A6Q7QGBYelO12TpGn7Jf-6" source="A6Q7QGBYelO12TpGn7Jf-13" target="A6Q7QGBYelO12TpGn7Jf-26">
          <mxGeometry relative="1" as="geometry" />
        </mxCell>
        <mxCell id="A6Q7QGBYelO12TpGn7Jf-13" value="Product &lt;br&gt;Entinty&lt;br&gt;matched" style="shape=rhombus;html=1;dashed=0;whitespace=wrap;perimeter=rhombusPerimeter;fontSize=11;horizontal=1;verticalAlign=middle;spacing=0;" vertex="1" parent="A6Q7QGBYelO12TpGn7Jf-6">
          <mxGeometry x="442" y="125.38" width="90" height="75" as="geometry" />
        </mxCell>
        <mxCell id="A6Q7QGBYelO12TpGn7Jf-14" style="edgeStyle=orthogonalEdgeStyle;rounded=0;orthogonalLoop=1;jettySize=auto;html=1;exitX=1;exitY=0.5;exitDx=0;exitDy=0;fontSize=11;" edge="1" parent="A6Q7QGBYelO12TpGn7Jf-6" source="A6Q7QGBYelO12TpGn7Jf-15" target="A6Q7QGBYelO12TpGn7Jf-24">
          <mxGeometry relative="1" as="geometry" />
        </mxCell>
        <mxCell id="A6Q7QGBYelO12TpGn7Jf-15" value="Search on &lt;br&gt;vm-products-api" style="shape=manualInput;whiteSpace=wrap;html=1;dashed=0;size=15;fontSize=11;align=center;" vertex="1" parent="A6Q7QGBYelO12TpGn7Jf-6">
          <mxGeometry x="189" y="137.75" width="100" height="50" as="geometry" />
        </mxCell>
        <mxCell id="A6Q7QGBYelO12TpGn7Jf-16" value="&lt;font style=&quot;font-size: 12px&quot;&gt;No&lt;/font&gt;" style="text;html=1;align=center;verticalAlign=middle;resizable=0;points=[];autosize=1;fontSize=20;" vertex="1" parent="A6Q7QGBYelO12TpGn7Jf-6">
          <mxGeometry x="485" y="198.63" width="30" height="30" as="geometry" />
        </mxCell>
        <mxCell id="A6Q7QGBYelO12TpGn7Jf-17" style="edgeStyle=orthogonalEdgeStyle;rounded=0;orthogonalLoop=1;jettySize=auto;html=1;exitX=1;exitY=0.5;exitDx=0;exitDy=0;entryX=0.5;entryY=0;entryDx=0;entryDy=0;fontSize=11;" edge="1" parent="A6Q7QGBYelO12TpGn7Jf-6" source="A6Q7QGBYelO12TpGn7Jf-18" target="A6Q7QGBYelO12TpGn7Jf-22">
          <mxGeometry relative="1" as="geometry" />
        </mxCell>
        <mxCell id="A6Q7QGBYelO12TpGn7Jf-18" value="Create Product Object" style="shape=parallelogram;perimeter=parallelogramPerimeter;whiteSpace=wrap;html=1;dashed=0;fontSize=11;align=center;" vertex="1" parent="A6Q7QGBYelO12TpGn7Jf-6">
          <mxGeometry x="585" y="77.88" width="100" height="50" as="geometry" />
        </mxCell>
        <mxCell id="A6Q7QGBYelO12TpGn7Jf-19" value="&lt;font style=&quot;font-size: 12px&quot;&gt;Yes&lt;/font&gt;" style="text;html=1;align=center;verticalAlign=middle;resizable=0;points=[];autosize=1;fontSize=20;" vertex="1" parent="A6Q7QGBYelO12TpGn7Jf-6">
          <mxGeometry x="485" y="72.88" width="40" height="30" as="geometry" />
        </mxCell>
        <mxCell id="A6Q7QGBYelO12TpGn7Jf-20" value="" style="html=1;dashed=0;whitespace=wrap;shape=mxgraph.dfd.start" vertex="1" parent="A6Q7QGBYelO12TpGn7Jf-6">
          <mxGeometry x="835" y="147.88" width="80" height="30" as="geometry" />
        </mxCell>
        <mxCell id="A6Q7QGBYelO12TpGn7Jf-21" style="edgeStyle=orthogonalEdgeStyle;rounded=0;orthogonalLoop=1;jettySize=auto;html=1;exitX=1;exitY=0.5;exitDx=0;exitDy=0;fontSize=11;" edge="1" parent="A6Q7QGBYelO12TpGn7Jf-6" source="A6Q7QGBYelO12TpGn7Jf-22" target="A6Q7QGBYelO12TpGn7Jf-20">
          <mxGeometry relative="1" as="geometry" />
        </mxCell>
        <mxCell id="A6Q7QGBYelO12TpGn7Jf-22" value="Create &lt;br&gt;response to middlewate" style="shape=parallelogram;perimeter=parallelogramPerimeter;whiteSpace=wrap;html=1;dashed=0;fontSize=11;align=center;" vertex="1" parent="A6Q7QGBYelO12TpGn7Jf-6">
          <mxGeometry x="705" y="137.63" width="100" height="50" as="geometry" />
        </mxCell>
        <mxCell id="A6Q7QGBYelO12TpGn7Jf-23" style="edgeStyle=orthogonalEdgeStyle;rounded=0;orthogonalLoop=1;jettySize=auto;html=1;exitX=1;exitY=0.5;exitDx=0;exitDy=0;fontSize=11;" edge="1" parent="A6Q7QGBYelO12TpGn7Jf-6" source="A6Q7QGBYelO12TpGn7Jf-24" target="A6Q7QGBYelO12TpGn7Jf-13">
          <mxGeometry relative="1" as="geometry" />
        </mxCell>
        <mxCell id="A6Q7QGBYelO12TpGn7Jf-24" value="&lt;br&gt;&lt;br&gt;&lt;br&gt;&lt;br&gt;vm-product-api(Rotine)" style="shape=ellipse;html=1;dashed=0;whitespace=wrap;perimeter=ellipsePerimeter;fontSize=11;align=center;" vertex="1" parent="A6Q7QGBYelO12TpGn7Jf-6">
          <mxGeometry x="342" y="148" width="30" height="30" as="geometry" />
        </mxCell>
        <mxCell id="A6Q7QGBYelO12TpGn7Jf-25" style="edgeStyle=orthogonalEdgeStyle;rounded=0;orthogonalLoop=1;jettySize=auto;html=1;exitX=1;exitY=0.5;exitDx=0;exitDy=0;fontSize=11;" edge="1" parent="A6Q7QGBYelO12TpGn7Jf-6" source="A6Q7QGBYelO12TpGn7Jf-26" target="A6Q7QGBYelO12TpGn7Jf-22">
          <mxGeometry relative="1" as="geometry" />
        </mxCell>
        <mxCell id="A6Q7QGBYelO12TpGn7Jf-26" value="Create error message" style="shape=parallelogram;perimeter=parallelogramPerimeter;whiteSpace=wrap;html=1;dashed=0;fontSize=11;align=center;" vertex="1" parent="A6Q7QGBYelO12TpGn7Jf-6">
          <mxGeometry x="575" y="198.63" width="100" height="50" as="geometry" />
        </mxCell>
        <mxCell id="A6Q7QGBYelO12TpGn7Jf-27" value="Simple Interaction &amp;nbsp;- Jade API Process - Commit" style="fontStyle=0;verticalAlign=top;align=center;spacingTop=-2;fillColor=none;rounded=0;whiteSpace=wrap;html=1;strokeColor=#FF0000;strokeWidth=2;dashed=1;container=1;collapsible=0;expand=0;recursiveResize=0;fontSize=20;" vertex="1" parent="A6Q7QGBYelO12TpGn7Jf-1">
          <mxGeometry x="8" y="1310" width="1062" height="430" as="geometry" />
        </mxCell>
        <mxCell id="A6Q7QGBYelO12TpGn7Jf-28" value="" style="html=1;dashed=0;whitespace=wrap;shape=mxgraph.dfd.start" vertex="1" parent="A6Q7QGBYelO12TpGn7Jf-27">
          <mxGeometry x="72" y="105.75" width="80" height="30" as="geometry" />
        </mxCell>
        <mxCell id="A6Q7QGBYelO12TpGn7Jf-29" style="edgeStyle=orthogonalEdgeStyle;rounded=0;orthogonalLoop=1;jettySize=auto;html=1;exitX=0.5;exitY=0.5;exitDx=0;exitDy=15;exitPerimeter=0;entryX=0.5;entryY=0;entryDx=0;entryDy=0;" edge="1" parent="A6Q7QGBYelO12TpGn7Jf-27" source="A6Q7QGBYelO12TpGn7Jf-28" target="A6Q7QGBYelO12TpGn7Jf-34">
          <mxGeometry relative="1" as="geometry">
            <mxPoint x="112" y="165.75" as="targetPoint" />
          </mxGeometry>
        </mxCell>
        <mxCell id="A6Q7QGBYelO12TpGn7Jf-30" value="" style="html=1;dashed=0;whitespace=wrap;shape=mxgraph.dfd.start" vertex="1" parent="A6Q7QGBYelO12TpGn7Jf-27">
          <mxGeometry x="574" y="379.5" width="80" height="30" as="geometry" />
        </mxCell>
        <mxCell id="A6Q7QGBYelO12TpGn7Jf-31" style="edgeStyle=orthogonalEdgeStyle;rounded=0;orthogonalLoop=1;jettySize=auto;html=1;exitX=0.5;exitY=1;exitDx=0;exitDy=0;entryX=0.5;entryY=0.5;entryDx=0;entryDy=-15;entryPerimeter=0;fontSize=11;" edge="1" parent="A6Q7QGBYelO12TpGn7Jf-27" source="A6Q7QGBYelO12TpGn7Jf-32" target="A6Q7QGBYelO12TpGn7Jf-30">
          <mxGeometry relative="1" as="geometry" />
        </mxCell>
        <mxCell id="A6Q7QGBYelO12TpGn7Jf-32" value="Create &lt;br&gt;response to middlewate" style="shape=parallelogram;perimeter=parallelogramPerimeter;whiteSpace=wrap;html=1;dashed=0;fontSize=11;align=center;" vertex="1" parent="A6Q7QGBYelO12TpGn7Jf-27">
          <mxGeometry x="574" y="303.5" width="100" height="50" as="geometry" />
        </mxCell>
        <mxCell id="A6Q7QGBYelO12TpGn7Jf-33" style="edgeStyle=orthogonalEdgeStyle;rounded=0;orthogonalLoop=1;jettySize=auto;html=1;exitX=1;exitY=0.5;exitDx=0;exitDy=0;entryX=0;entryY=0.5;entryDx=0;entryDy=0;fontSize=11;" edge="1" parent="A6Q7QGBYelO12TpGn7Jf-27" source="A6Q7QGBYelO12TpGn7Jf-34" target="A6Q7QGBYelO12TpGn7Jf-37">
          <mxGeometry relative="1" as="geometry" />
        </mxCell>
        <mxCell id="A6Q7QGBYelO12TpGn7Jf-34" value="&lt;br&gt;&lt;br&gt;&lt;br&gt;&lt;br&gt;Query Jade (Rotine)" style="shape=ellipse;html=1;dashed=0;whitespace=wrap;perimeter=ellipsePerimeter;fontSize=11;align=center;" vertex="1" parent="A6Q7QGBYelO12TpGn7Jf-27">
          <mxGeometry x="97" y="169.5" width="30" height="30" as="geometry" />
        </mxCell>
        <mxCell id="A6Q7QGBYelO12TpGn7Jf-35" style="edgeStyle=orthogonalEdgeStyle;rounded=0;orthogonalLoop=1;jettySize=auto;html=1;exitX=0.5;exitY=1;exitDx=0;exitDy=0;fontSize=11;entryX=0.5;entryY=0;entryDx=0;entryDy=0;" edge="1" parent="A6Q7QGBYelO12TpGn7Jf-27" source="A6Q7QGBYelO12TpGn7Jf-37" target="A6Q7QGBYelO12TpGn7Jf-48">
          <mxGeometry relative="1" as="geometry">
            <mxPoint x="239" y="269.5" as="targetPoint" />
          </mxGeometry>
        </mxCell>
        <mxCell id="A6Q7QGBYelO12TpGn7Jf-36" style="edgeStyle=orthogonalEdgeStyle;rounded=0;orthogonalLoop=1;jettySize=auto;html=1;exitX=0.5;exitY=0;exitDx=0;exitDy=0;entryX=0;entryY=0.5;entryDx=0;entryDy=0;fontSize=11;" edge="1" parent="A6Q7QGBYelO12TpGn7Jf-27" source="A6Q7QGBYelO12TpGn7Jf-37" target="A6Q7QGBYelO12TpGn7Jf-39">
          <mxGeometry relative="1" as="geometry" />
        </mxCell>
        <mxCell id="A6Q7QGBYelO12TpGn7Jf-37" value="&lt;span style=&quot;font-size: 11px&quot;&gt;Response&lt;br&gt;ok&lt;br&gt;&lt;/span&gt;" style="shape=rhombus;html=1;dashed=0;whitespace=wrap;perimeter=rhombusPerimeter;fontSize=11;horizontal=1;verticalAlign=middle;spacing=0;" vertex="1" parent="A6Q7QGBYelO12TpGn7Jf-27">
          <mxGeometry x="194" y="147" width="90" height="75" as="geometry" />
        </mxCell>
        <mxCell id="A6Q7QGBYelO12TpGn7Jf-38" style="edgeStyle=orthogonalEdgeStyle;rounded=0;orthogonalLoop=1;jettySize=auto;html=1;exitX=1;exitY=0.5;exitDx=0;exitDy=0;fontSize=11;" edge="1" parent="A6Q7QGBYelO12TpGn7Jf-27" source="A6Q7QGBYelO12TpGn7Jf-39" target="A6Q7QGBYelO12TpGn7Jf-42">
          <mxGeometry relative="1" as="geometry" />
        </mxCell>
        <mxCell id="A6Q7QGBYelO12TpGn7Jf-39" value="Call endpoint &lt;br&gt;addProduct from&amp;nbsp;&lt;br&gt;vm-presale-api" style="html=1;dashed=0;whitespace=wrap;fontSize=11;align=center;" vertex="1" parent="A6Q7QGBYelO12TpGn7Jf-27">
          <mxGeometry x="354" y="92.5" width="100" height="50" as="geometry" />
        </mxCell>
        <mxCell id="A6Q7QGBYelO12TpGn7Jf-40" style="edgeStyle=orthogonalEdgeStyle;rounded=0;orthogonalLoop=1;jettySize=auto;html=1;exitX=0.5;exitY=1;exitDx=0;exitDy=0;entryX=1;entryY=0;entryDx=0;entryDy=0;fontSize=11;" edge="1" parent="A6Q7QGBYelO12TpGn7Jf-27" source="A6Q7QGBYelO12TpGn7Jf-42" target="A6Q7QGBYelO12TpGn7Jf-48">
          <mxGeometry relative="1" as="geometry">
            <mxPoint x="279" y="294.5" as="targetPoint" />
            <Array as="points">
              <mxPoint x="549" y="284" />
            </Array>
          </mxGeometry>
        </mxCell>
        <mxCell id="A6Q7QGBYelO12TpGn7Jf-41" style="edgeStyle=orthogonalEdgeStyle;rounded=0;orthogonalLoop=1;jettySize=auto;html=1;exitX=1;exitY=0.5;exitDx=0;exitDy=0;entryX=0.5;entryY=0;entryDx=0;entryDy=0;fontSize=11;" edge="1" parent="A6Q7QGBYelO12TpGn7Jf-27" source="A6Q7QGBYelO12TpGn7Jf-42" target="A6Q7QGBYelO12TpGn7Jf-32">
          <mxGeometry relative="1" as="geometry" />
        </mxCell>
        <mxCell id="A6Q7QGBYelO12TpGn7Jf-42" value="&lt;span style=&quot;font-size: 11px&quot;&gt;Added&lt;br&gt;product&lt;br&gt;&lt;/span&gt;" style="shape=rhombus;html=1;dashed=0;whitespace=wrap;perimeter=rhombusPerimeter;fontSize=11;horizontal=1;verticalAlign=middle;spacing=0;" vertex="1" parent="A6Q7QGBYelO12TpGn7Jf-27">
          <mxGeometry x="504" y="80" width="90" height="75" as="geometry" />
        </mxCell>
        <mxCell id="A6Q7QGBYelO12TpGn7Jf-43" value="&lt;font style=&quot;font-size: 12px&quot;&gt;Yes&lt;/font&gt;" style="text;html=1;align=center;verticalAlign=middle;resizable=0;points=[];autosize=1;fontSize=20;" vertex="1" parent="A6Q7QGBYelO12TpGn7Jf-27">
          <mxGeometry x="232" y="117" width="40" height="30" as="geometry" />
        </mxCell>
        <mxCell id="A6Q7QGBYelO12TpGn7Jf-44" value="&lt;font style=&quot;font-size: 12px&quot;&gt;Yes&lt;/font&gt;" style="text;html=1;align=center;verticalAlign=middle;resizable=0;points=[];autosize=1;fontSize=20;" vertex="1" parent="A6Q7QGBYelO12TpGn7Jf-27">
          <mxGeometry x="582" y="92.5" width="40" height="30" as="geometry" />
        </mxCell>
        <mxCell id="A6Q7QGBYelO12TpGn7Jf-45" value="&lt;font style=&quot;font-size: 12px&quot;&gt;No&lt;/font&gt;" style="text;html=1;align=center;verticalAlign=middle;resizable=0;points=[];autosize=1;fontSize=20;" vertex="1" parent="A6Q7QGBYelO12TpGn7Jf-27">
          <mxGeometry x="237" y="220" width="30" height="30" as="geometry" />
        </mxCell>
        <mxCell id="A6Q7QGBYelO12TpGn7Jf-46" value="&lt;font style=&quot;font-size: 12px&quot;&gt;No&lt;/font&gt;" style="text;html=1;align=center;verticalAlign=middle;resizable=0;points=[];autosize=1;fontSize=20;" vertex="1" parent="A6Q7QGBYelO12TpGn7Jf-27">
          <mxGeometry x="544" y="153" width="30" height="30" as="geometry" />
        </mxCell>
        <mxCell id="A6Q7QGBYelO12TpGn7Jf-47" style="edgeStyle=orthogonalEdgeStyle;rounded=0;orthogonalLoop=1;jettySize=auto;html=1;exitX=1;exitY=0.5;exitDx=0;exitDy=0;entryX=0;entryY=0.5;entryDx=0;entryDy=0;fontSize=11;" edge="1" parent="A6Q7QGBYelO12TpGn7Jf-27" source="A6Q7QGBYelO12TpGn7Jf-48" target="A6Q7QGBYelO12TpGn7Jf-32">
          <mxGeometry relative="1" as="geometry" />
        </mxCell>
        <mxCell id="A6Q7QGBYelO12TpGn7Jf-48" value="&lt;span&gt;&lt;br&gt;&lt;br&gt;&lt;br&gt;&lt;br&gt;Create error message&lt;/span&gt;" style="shape=ellipse;html=1;dashed=0;whitespace=wrap;perimeter=ellipsePerimeter;fontSize=11;align=center;" vertex="1" parent="A6Q7QGBYelO12TpGn7Jf-27">
          <mxGeometry x="224" y="280" width="30" height="30" as="geometry" />
        </mxCell>
        <mxCell id="A6Q7QGBYelO12TpGn7Jf-49" value="Simple Interaction &amp;nbsp;- Jade API Process -Weight Product" style="fontStyle=0;verticalAlign=top;align=center;spacingTop=-2;fillColor=none;rounded=0;whiteSpace=wrap;html=1;strokeColor=#FF0000;strokeWidth=2;dashed=1;container=1;collapsible=0;expand=0;recursiveResize=0;fontSize=20;" vertex="1" parent="A6Q7QGBYelO12TpGn7Jf-1">
          <mxGeometry x="8" y="870" width="1062" height="430" as="geometry" />
        </mxCell>
        <mxCell id="A6Q7QGBYelO12TpGn7Jf-50" value="" style="html=1;dashed=0;whitespace=wrap;shape=mxgraph.dfd.start" vertex="1" parent="A6Q7QGBYelO12TpGn7Jf-49">
          <mxGeometry x="72" y="105.75" width="80" height="30" as="geometry" />
        </mxCell>
        <mxCell id="A6Q7QGBYelO12TpGn7Jf-51" style="edgeStyle=orthogonalEdgeStyle;rounded=0;orthogonalLoop=1;jettySize=auto;html=1;exitX=0.5;exitY=0.5;exitDx=0;exitDy=15;exitPerimeter=0;entryX=0.5;entryY=0;entryDx=0;entryDy=0;" edge="1" parent="A6Q7QGBYelO12TpGn7Jf-49" source="A6Q7QGBYelO12TpGn7Jf-50" target="A6Q7QGBYelO12TpGn7Jf-59">
          <mxGeometry relative="1" as="geometry">
            <mxPoint x="112" y="169.5" as="targetPoint" />
          </mxGeometry>
        </mxCell>
        <mxCell id="A6Q7QGBYelO12TpGn7Jf-52" value="" style="html=1;dashed=0;whitespace=wrap;shape=mxgraph.dfd.start" vertex="1" parent="A6Q7QGBYelO12TpGn7Jf-49">
          <mxGeometry x="642" y="210" width="80" height="30" as="geometry" />
        </mxCell>
        <mxCell id="A6Q7QGBYelO12TpGn7Jf-53" style="edgeStyle=orthogonalEdgeStyle;rounded=0;orthogonalLoop=1;jettySize=auto;html=1;exitX=0.5;exitY=0;exitDx=0;exitDy=0;entryX=0;entryY=0.5;entryDx=0;entryDy=0;fontSize=11;" edge="1" parent="A6Q7QGBYelO12TpGn7Jf-49" source="A6Q7QGBYelO12TpGn7Jf-55" target="A6Q7QGBYelO12TpGn7Jf-61">
          <mxGeometry relative="1" as="geometry">
            <mxPoint x="354" y="117.5" as="targetPoint" />
          </mxGeometry>
        </mxCell>
        <mxCell id="A6Q7QGBYelO12TpGn7Jf-54" style="edgeStyle=orthogonalEdgeStyle;rounded=0;orthogonalLoop=1;jettySize=auto;html=1;exitX=0.5;exitY=1;exitDx=0;exitDy=0;fontSize=11;" edge="1" parent="A6Q7QGBYelO12TpGn7Jf-49" source="A6Q7QGBYelO12TpGn7Jf-55" target="A6Q7QGBYelO12TpGn7Jf-63">
          <mxGeometry relative="1" as="geometry" />
        </mxCell>
        <mxCell id="A6Q7QGBYelO12TpGn7Jf-55" value="peso_variavel&lt;br&gt;&amp;nbsp;or&amp;nbsp;qtd_decimal&amp;nbsp;&lt;br&gt;equals 0" style="shape=rhombus;html=1;dashed=0;whitespace=wrap;perimeter=rhombusPerimeter;fontSize=11;horizontal=1;verticalAlign=middle;spacing=0;" vertex="1" parent="A6Q7QGBYelO12TpGn7Jf-49">
          <mxGeometry x="212" y="168.75" width="111" height="92.5" as="geometry" />
        </mxCell>
        <mxCell id="A6Q7QGBYelO12TpGn7Jf-56" value="&lt;font style=&quot;font-size: 12px&quot;&gt;Yes&lt;/font&gt;" style="text;html=1;align=center;verticalAlign=middle;resizable=0;points=[];autosize=1;fontSize=20;" vertex="1" parent="A6Q7QGBYelO12TpGn7Jf-49">
          <mxGeometry x="262" y="142.5" width="40" height="30" as="geometry" />
        </mxCell>
        <mxCell id="A6Q7QGBYelO12TpGn7Jf-57" value="&lt;font style=&quot;font-size: 12px&quot;&gt;No&lt;/font&gt;" style="text;html=1;align=center;verticalAlign=middle;resizable=0;points=[];autosize=1;fontSize=20;" vertex="1" parent="A6Q7QGBYelO12TpGn7Jf-49">
          <mxGeometry x="262" y="250" width="30" height="30" as="geometry" />
        </mxCell>
        <mxCell id="A6Q7QGBYelO12TpGn7Jf-58" style="edgeStyle=orthogonalEdgeStyle;rounded=0;orthogonalLoop=1;jettySize=auto;html=1;exitX=1;exitY=0.5;exitDx=0;exitDy=0;entryX=0;entryY=0.5;entryDx=0;entryDy=0;fontSize=11;" edge="1" parent="A6Q7QGBYelO12TpGn7Jf-49" source="A6Q7QGBYelO12TpGn7Jf-59" target="A6Q7QGBYelO12TpGn7Jf-55">
          <mxGeometry relative="1" as="geometry" />
        </mxCell>
        <mxCell id="A6Q7QGBYelO12TpGn7Jf-59" value="Receives Product Entity" style="shape=document;whiteSpace=wrap;html=1;boundedLbl=1;dashed=0;flipH=1;fontSize=11;align=center;" vertex="1" parent="A6Q7QGBYelO12TpGn7Jf-49">
          <mxGeometry x="62" y="180" width="100" height="70" as="geometry" />
        </mxCell>
        <mxCell id="A6Q7QGBYelO12TpGn7Jf-60" style="edgeStyle=orthogonalEdgeStyle;rounded=0;orthogonalLoop=1;jettySize=auto;html=1;exitX=1;exitY=0.5;exitDx=0;exitDy=0;entryX=0.5;entryY=0;entryDx=0;entryDy=0;fontSize=11;" edge="1" parent="A6Q7QGBYelO12TpGn7Jf-49" source="A6Q7QGBYelO12TpGn7Jf-61" target="A6Q7QGBYelO12TpGn7Jf-65">
          <mxGeometry relative="1" as="geometry" />
        </mxCell>
        <mxCell id="A6Q7QGBYelO12TpGn7Jf-61" value="Set attribute &lt;br&gt;&lt;b&gt;flag &lt;/b&gt;to&lt;b&gt; 1&lt;/b&gt;" style="shape=parallelogram;perimeter=parallelogramPerimeter;whiteSpace=wrap;html=1;dashed=0;fontSize=11;align=center;" vertex="1" parent="A6Q7QGBYelO12TpGn7Jf-49">
          <mxGeometry x="362" y="122.5" width="100" height="50" as="geometry" />
        </mxCell>
        <mxCell id="A6Q7QGBYelO12TpGn7Jf-62" style="edgeStyle=orthogonalEdgeStyle;rounded=0;orthogonalLoop=1;jettySize=auto;html=1;exitX=1;exitY=0.75;exitDx=0;exitDy=0;entryX=0.5;entryY=1;entryDx=0;entryDy=0;fontSize=11;" edge="1" parent="A6Q7QGBYelO12TpGn7Jf-49" source="A6Q7QGBYelO12TpGn7Jf-63" target="A6Q7QGBYelO12TpGn7Jf-65">
          <mxGeometry relative="1" as="geometry" />
        </mxCell>
        <mxCell id="A6Q7QGBYelO12TpGn7Jf-63" value="Set attribute &lt;br&gt;&lt;b&gt;flag &lt;/b&gt;to&lt;b&gt; 2&lt;/b&gt;" style="shape=parallelogram;perimeter=parallelogramPerimeter;whiteSpace=wrap;html=1;dashed=0;fontSize=11;align=center;" vertex="1" parent="A6Q7QGBYelO12TpGn7Jf-49">
          <mxGeometry x="352" y="261.25" width="100" height="50" as="geometry" />
        </mxCell>
        <mxCell id="A6Q7QGBYelO12TpGn7Jf-64" style="edgeStyle=orthogonalEdgeStyle;rounded=0;orthogonalLoop=1;jettySize=auto;html=1;exitX=1;exitY=0.5;exitDx=0;exitDy=0;entryX=0;entryY=0.5;entryDx=0;entryDy=0;entryPerimeter=0;fontSize=11;" edge="1" parent="A6Q7QGBYelO12TpGn7Jf-49" source="A6Q7QGBYelO12TpGn7Jf-65" target="A6Q7QGBYelO12TpGn7Jf-52">
          <mxGeometry relative="1" as="geometry" />
        </mxCell>
        <mxCell id="A6Q7QGBYelO12TpGn7Jf-65" value="Entity Product&lt;br&gt;with new&lt;br&gt;&amp;nbsp;attribute&amp;nbsp;" style="shape=parallelogram;perimeter=parallelogramPerimeter;whiteSpace=wrap;html=1;dashed=0;fontSize=11;align=center;" vertex="1" parent="A6Q7QGBYelO12TpGn7Jf-49">
          <mxGeometry x="492" y="200" width="100" height="50" as="geometry" />
        </mxCell>
        <mxCell id="A6Q7QGBYelO12TpGn7Jf-66" value="Simple Interaction &amp;nbsp;- Jade API Process -Error Message" style="fontStyle=0;verticalAlign=top;align=center;spacingTop=-2;fillColor=none;rounded=0;whiteSpace=wrap;html=1;strokeColor=#FF0000;strokeWidth=2;dashed=1;container=1;collapsible=0;expand=0;recursiveResize=0;fontSize=20;" vertex="1" parent="A6Q7QGBYelO12TpGn7Jf-1">
          <mxGeometry x="8" y="1770" width="1062" height="430" as="geometry" />
        </mxCell>
        <mxCell id="A6Q7QGBYelO12TpGn7Jf-67" value="" style="html=1;dashed=0;whitespace=wrap;shape=mxgraph.dfd.start" vertex="1" parent="A6Q7QGBYelO12TpGn7Jf-66">
          <mxGeometry x="72" y="105.75" width="80" height="30" as="geometry" />
        </mxCell>
        <mxCell id="A6Q7QGBYelO12TpGn7Jf-68" style="edgeStyle=orthogonalEdgeStyle;rounded=0;orthogonalLoop=1;jettySize=auto;html=1;exitX=0.5;exitY=0.5;exitDx=0;exitDy=15;exitPerimeter=0;entryX=0.5;entryY=0;entryDx=0;entryDy=0;" edge="1" parent="A6Q7QGBYelO12TpGn7Jf-66" source="A6Q7QGBYelO12TpGn7Jf-67" target="A6Q7QGBYelO12TpGn7Jf-76">
          <mxGeometry relative="1" as="geometry">
            <mxPoint x="112" y="169.5" as="targetPoint" />
          </mxGeometry>
        </mxCell>
        <mxCell id="A6Q7QGBYelO12TpGn7Jf-69" value="" style="html=1;dashed=0;whitespace=wrap;shape=mxgraph.dfd.start" vertex="1" parent="A6Q7QGBYelO12TpGn7Jf-66">
          <mxGeometry x="642" y="210" width="80" height="30" as="geometry" />
        </mxCell>
        <mxCell id="A6Q7QGBYelO12TpGn7Jf-70" style="edgeStyle=orthogonalEdgeStyle;rounded=0;orthogonalLoop=1;jettySize=auto;html=1;exitX=0.5;exitY=0;exitDx=0;exitDy=0;entryX=0;entryY=0.5;entryDx=0;entryDy=0;fontSize=11;" edge="1" parent="A6Q7QGBYelO12TpGn7Jf-66" source="A6Q7QGBYelO12TpGn7Jf-72" target="A6Q7QGBYelO12TpGn7Jf-78">
          <mxGeometry relative="1" as="geometry">
            <mxPoint x="354" y="117.5" as="targetPoint" />
          </mxGeometry>
        </mxCell>
        <mxCell id="A6Q7QGBYelO12TpGn7Jf-71" style="edgeStyle=orthogonalEdgeStyle;rounded=0;orthogonalLoop=1;jettySize=auto;html=1;exitX=0.5;exitY=1;exitDx=0;exitDy=0;fontSize=11;" edge="1" parent="A6Q7QGBYelO12TpGn7Jf-66" source="A6Q7QGBYelO12TpGn7Jf-72" target="A6Q7QGBYelO12TpGn7Jf-80">
          <mxGeometry relative="1" as="geometry" />
        </mxCell>
        <mxCell id="A6Q7QGBYelO12TpGn7Jf-72" value="peso_variavel&lt;br&gt;&amp;nbsp;or&amp;nbsp;qtd_decimal&amp;nbsp;&lt;br&gt;equals 0" style="shape=rhombus;html=1;dashed=0;whitespace=wrap;perimeter=rhombusPerimeter;fontSize=11;horizontal=1;verticalAlign=middle;spacing=0;" vertex="1" parent="A6Q7QGBYelO12TpGn7Jf-66">
          <mxGeometry x="212" y="168.75" width="111" height="92.5" as="geometry" />
        </mxCell>
        <mxCell id="A6Q7QGBYelO12TpGn7Jf-73" value="&lt;font style=&quot;font-size: 12px&quot;&gt;Yes&lt;/font&gt;" style="text;html=1;align=center;verticalAlign=middle;resizable=0;points=[];autosize=1;fontSize=20;" vertex="1" parent="A6Q7QGBYelO12TpGn7Jf-66">
          <mxGeometry x="262" y="142.5" width="40" height="30" as="geometry" />
        </mxCell>
        <mxCell id="A6Q7QGBYelO12TpGn7Jf-74" value="&lt;font style=&quot;font-size: 12px&quot;&gt;No&lt;/font&gt;" style="text;html=1;align=center;verticalAlign=middle;resizable=0;points=[];autosize=1;fontSize=20;" vertex="1" parent="A6Q7QGBYelO12TpGn7Jf-66">
          <mxGeometry x="262" y="250" width="30" height="30" as="geometry" />
        </mxCell>
        <mxCell id="A6Q7QGBYelO12TpGn7Jf-75" style="edgeStyle=orthogonalEdgeStyle;rounded=0;orthogonalLoop=1;jettySize=auto;html=1;exitX=1;exitY=0.5;exitDx=0;exitDy=0;entryX=0;entryY=0.5;entryDx=0;entryDy=0;fontSize=11;" edge="1" parent="A6Q7QGBYelO12TpGn7Jf-66" source="A6Q7QGBYelO12TpGn7Jf-76" target="A6Q7QGBYelO12TpGn7Jf-72">
          <mxGeometry relative="1" as="geometry" />
        </mxCell>
        <mxCell id="A6Q7QGBYelO12TpGn7Jf-76" value="Receives Product Entity" style="shape=document;whiteSpace=wrap;html=1;boundedLbl=1;dashed=0;flipH=1;fontSize=11;align=center;" vertex="1" parent="A6Q7QGBYelO12TpGn7Jf-66">
          <mxGeometry x="62" y="180" width="100" height="70" as="geometry" />
        </mxCell>
        <mxCell id="A6Q7QGBYelO12TpGn7Jf-77" style="edgeStyle=orthogonalEdgeStyle;rounded=0;orthogonalLoop=1;jettySize=auto;html=1;exitX=1;exitY=0.5;exitDx=0;exitDy=0;entryX=0.5;entryY=0;entryDx=0;entryDy=0;fontSize=11;" edge="1" parent="A6Q7QGBYelO12TpGn7Jf-66" source="A6Q7QGBYelO12TpGn7Jf-78" target="A6Q7QGBYelO12TpGn7Jf-82">
          <mxGeometry relative="1" as="geometry" />
        </mxCell>
        <mxCell id="A6Q7QGBYelO12TpGn7Jf-78" value="Set attribute &lt;br&gt;&lt;b&gt;flag &lt;/b&gt;to&lt;b&gt; 1&lt;/b&gt;" style="shape=parallelogram;perimeter=parallelogramPerimeter;whiteSpace=wrap;html=1;dashed=0;fontSize=11;align=center;" vertex="1" parent="A6Q7QGBYelO12TpGn7Jf-66">
          <mxGeometry x="362" y="122.5" width="100" height="50" as="geometry" />
        </mxCell>
        <mxCell id="A6Q7QGBYelO12TpGn7Jf-79" style="edgeStyle=orthogonalEdgeStyle;rounded=0;orthogonalLoop=1;jettySize=auto;html=1;exitX=1;exitY=0.75;exitDx=0;exitDy=0;entryX=0.5;entryY=1;entryDx=0;entryDy=0;fontSize=11;" edge="1" parent="A6Q7QGBYelO12TpGn7Jf-66" source="A6Q7QGBYelO12TpGn7Jf-80" target="A6Q7QGBYelO12TpGn7Jf-82">
          <mxGeometry relative="1" as="geometry" />
        </mxCell>
        <mxCell id="A6Q7QGBYelO12TpGn7Jf-80" value="Set attribute &lt;br&gt;&lt;b&gt;flag &lt;/b&gt;to&lt;b&gt; 2&lt;/b&gt;" style="shape=parallelogram;perimeter=parallelogramPerimeter;whiteSpace=wrap;html=1;dashed=0;fontSize=11;align=center;" vertex="1" parent="A6Q7QGBYelO12TpGn7Jf-66">
          <mxGeometry x="352" y="261.25" width="100" height="50" as="geometry" />
        </mxCell>
        <mxCell id="A6Q7QGBYelO12TpGn7Jf-81" style="edgeStyle=orthogonalEdgeStyle;rounded=0;orthogonalLoop=1;jettySize=auto;html=1;exitX=1;exitY=0.5;exitDx=0;exitDy=0;entryX=0;entryY=0.5;entryDx=0;entryDy=0;entryPerimeter=0;fontSize=11;" edge="1" parent="A6Q7QGBYelO12TpGn7Jf-66" source="A6Q7QGBYelO12TpGn7Jf-82" target="A6Q7QGBYelO12TpGn7Jf-69">
          <mxGeometry relative="1" as="geometry" />
        </mxCell>
        <mxCell id="A6Q7QGBYelO12TpGn7Jf-82" value="Entity Product&lt;br&gt;with new&lt;br&gt;&amp;nbsp;attribute&amp;nbsp;" style="shape=parallelogram;perimeter=parallelogramPerimeter;whiteSpace=wrap;html=1;dashed=0;fontSize=11;align=center;" vertex="1" parent="A6Q7QGBYelO12TpGn7Jf-66">
          <mxGeometry x="492" y="200" width="100" height="50" as="geometry" />
        </mxCell>
        <mxCell id="A6Q7QGBYelO12TpGn7Jf-83" value="Simple Interaction &amp;nbsp;- Jade API Process - Query" style="fontStyle=0;verticalAlign=top;align=center;spacingTop=-2;fillColor=none;rounded=0;whiteSpace=wrap;html=1;strokeColor=#FF0000;strokeWidth=2;dashed=1;container=1;collapsible=0;expand=0;recursiveResize=0;fontSize=20;" vertex="1" parent="A6Q7QGBYelO12TpGn7Jf-1">
          <mxGeometry x="1150" y="209" width="1062" height="617" as="geometry" />
        </mxCell>
        <mxCell id="A6Q7QGBYelO12TpGn7Jf-84" value="" style="html=1;dashed=0;whitespace=wrap;shape=mxgraph.dfd.start" vertex="1" parent="A6Q7QGBYelO12TpGn7Jf-83">
          <mxGeometry x="77" y="122" width="80" height="30" as="geometry" />
        </mxCell>
        <mxCell id="A6Q7QGBYelO12TpGn7Jf-85" style="edgeStyle=orthogonalEdgeStyle;rounded=0;orthogonalLoop=1;jettySize=auto;html=1;exitX=0.5;exitY=0.5;exitDx=0;exitDy=15;exitPerimeter=0;entryX=0.5;entryY=0;entryDx=0;entryDy=0;" edge="1" parent="A6Q7QGBYelO12TpGn7Jf-83" source="A6Q7QGBYelO12TpGn7Jf-84" target="A6Q7QGBYelO12TpGn7Jf-87">
          <mxGeometry relative="1" as="geometry">
            <mxPoint x="117" y="182" as="targetPoint" />
          </mxGeometry>
        </mxCell>
        <mxCell id="A6Q7QGBYelO12TpGn7Jf-86" style="edgeStyle=orthogonalEdgeStyle;rounded=0;orthogonalLoop=1;jettySize=auto;html=1;exitX=1;exitY=0.5;exitDx=0;exitDy=0;entryX=0;entryY=0.5;entryDx=0;entryDy=0;fontSize=11;" edge="1" parent="A6Q7QGBYelO12TpGn7Jf-83" source="A6Q7QGBYelO12TpGn7Jf-87" target="A6Q7QGBYelO12TpGn7Jf-94">
          <mxGeometry relative="1" as="geometry" />
        </mxCell>
        <mxCell id="A6Q7QGBYelO12TpGn7Jf-87" value="API receives &lt;br&gt;EAN from &lt;br&gt;middleware" style="html=1;dashed=0;whitespace=wrap;" vertex="1" parent="A6Q7QGBYelO12TpGn7Jf-83">
          <mxGeometry x="72" y="182" width="90" height="50" as="geometry" />
        </mxCell>
        <mxCell id="A6Q7QGBYelO12TpGn7Jf-88" style="edgeStyle=orthogonalEdgeStyle;rounded=0;orthogonalLoop=1;jettySize=auto;html=1;exitX=1;exitY=0.5;exitDx=0;exitDy=0;entryX=0;entryY=0.75;entryDx=0;entryDy=0;fontSize=11;" edge="1" parent="A6Q7QGBYelO12TpGn7Jf-83" source="A6Q7QGBYelO12TpGn7Jf-89" target="A6Q7QGBYelO12TpGn7Jf-100">
          <mxGeometry relative="1" as="geometry" />
        </mxCell>
        <mxCell id="A6Q7QGBYelO12TpGn7Jf-89" value="&lt;span style=&quot;font-size: 11px&quot;&gt;&amp;nbsp;EAN first digit &lt;br style=&quot;font-size: 11px&quot;&gt;equals 2&lt;/span&gt;" style="shape=rhombus;html=1;dashed=0;whitespace=wrap;perimeter=rhombusPerimeter;fontSize=11;horizontal=1;verticalAlign=middle;spacing=0;" vertex="1" parent="A6Q7QGBYelO12TpGn7Jf-83">
          <mxGeometry x="349" y="69.5" width="90" height="75" as="geometry" />
        </mxCell>
        <mxCell id="A6Q7QGBYelO12TpGn7Jf-90" style="edgeStyle=orthogonalEdgeStyle;rounded=0;orthogonalLoop=1;jettySize=auto;html=1;exitX=1;exitY=0.5;exitDx=0;exitDy=0;fontSize=11;" edge="1" parent="A6Q7QGBYelO12TpGn7Jf-83" source="A6Q7QGBYelO12TpGn7Jf-92" target="A6Q7QGBYelO12TpGn7Jf-102">
          <mxGeometry relative="1" as="geometry" />
        </mxCell>
        <mxCell id="A6Q7QGBYelO12TpGn7Jf-91" style="edgeStyle=orthogonalEdgeStyle;rounded=0;orthogonalLoop=1;jettySize=auto;html=1;exitX=0.5;exitY=1;exitDx=0;exitDy=0;fontSize=11;" edge="1" parent="A6Q7QGBYelO12TpGn7Jf-83" source="A6Q7QGBYelO12TpGn7Jf-92" target="A6Q7QGBYelO12TpGn7Jf-109">
          <mxGeometry relative="1" as="geometry" />
        </mxCell>
        <mxCell id="A6Q7QGBYelO12TpGn7Jf-92" value="Â EANÂ &#xa;length is &#xa;equals 22&#xa;" style="shape=rhombus;dashed=0;whitespace=wrap;perimeter=rhombusPerimeter;fontSize=11;horizontal=1;verticalAlign=middle;spacing=0;align=center;" vertex="1" parent="A6Q7QGBYelO12TpGn7Jf-83">
          <mxGeometry x="629" y="57" width="90" height="75" as="geometry" />
        </mxCell>
        <mxCell id="A6Q7QGBYelO12TpGn7Jf-93" style="edgeStyle=orthogonalEdgeStyle;rounded=0;orthogonalLoop=1;jettySize=auto;html=1;exitX=0.5;exitY=1;exitDx=0;exitDy=0;entryX=0.5;entryY=0;entryDx=0;entryDy=0;fontSize=11;" edge="1" parent="A6Q7QGBYelO12TpGn7Jf-83" source="A6Q7QGBYelO12TpGn7Jf-94" target="A6Q7QGBYelO12TpGn7Jf-97">
          <mxGeometry relative="1" as="geometry" />
        </mxCell>
        <mxCell id="A6Q7QGBYelO12TpGn7Jf-94" value="Search on &lt;br&gt;vm-products-api" style="shape=manualInput;whiteSpace=wrap;html=1;dashed=0;size=15;fontSize=11;align=center;" vertex="1" parent="A6Q7QGBYelO12TpGn7Jf-83">
          <mxGeometry x="189" y="181.75" width="100" height="50" as="geometry" />
        </mxCell>
        <mxCell id="A6Q7QGBYelO12TpGn7Jf-95" style="edgeStyle=orthogonalEdgeStyle;rounded=0;orthogonalLoop=1;jettySize=auto;html=1;exitX=1;exitY=0.5;exitDx=0;exitDy=0;entryX=0.5;entryY=1;entryDx=0;entryDy=0;fontSize=11;" edge="1" parent="A6Q7QGBYelO12TpGn7Jf-83" source="A6Q7QGBYelO12TpGn7Jf-97" target="A6Q7QGBYelO12TpGn7Jf-89">
          <mxGeometry relative="1" as="geometry" />
        </mxCell>
        <mxCell id="A6Q7QGBYelO12TpGn7Jf-96" style="edgeStyle=orthogonalEdgeStyle;rounded=0;orthogonalLoop=1;jettySize=auto;html=1;exitX=0.5;exitY=1;exitDx=0;exitDy=0;entryX=0;entryY=0.5;entryDx=0;entryDy=0;fontSize=11;" edge="1" parent="A6Q7QGBYelO12TpGn7Jf-83" source="A6Q7QGBYelO12TpGn7Jf-97" target="A6Q7QGBYelO12TpGn7Jf-107">
          <mxGeometry relative="1" as="geometry" />
        </mxCell>
        <mxCell id="A6Q7QGBYelO12TpGn7Jf-97" value="&lt;span style=&quot;font-size: 11px&quot;&gt;&amp;nbsp;EAN matches&lt;/span&gt;" style="shape=rhombus;html=1;dashed=0;whitespace=wrap;perimeter=rhombusPerimeter;fontSize=11;horizontal=1;verticalAlign=middle;spacing=0;" vertex="1" parent="A6Q7QGBYelO12TpGn7Jf-83">
          <mxGeometry x="199" y="262.75" width="90" height="75" as="geometry" />
        </mxCell>
        <mxCell id="A6Q7QGBYelO12TpGn7Jf-98" value="&lt;font style=&quot;font-size: 12px&quot;&gt;No&lt;/font&gt;" style="text;html=1;align=center;verticalAlign=middle;resizable=0;points=[];autosize=1;fontSize=20;" vertex="1" parent="A6Q7QGBYelO12TpGn7Jf-83">
          <mxGeometry x="286" y="272.75" width="30" height="30" as="geometry" />
        </mxCell>
        <mxCell id="A6Q7QGBYelO12TpGn7Jf-99" style="edgeStyle=orthogonalEdgeStyle;rounded=0;orthogonalLoop=1;jettySize=auto;html=1;exitX=1;exitY=0.5;exitDx=0;exitDy=0;entryX=0;entryY=0.5;entryDx=0;entryDy=0;fontSize=11;" edge="1" parent="A6Q7QGBYelO12TpGn7Jf-83" source="A6Q7QGBYelO12TpGn7Jf-100" target="A6Q7QGBYelO12TpGn7Jf-92">
          <mxGeometry relative="1" as="geometry" />
        </mxCell>
        <mxCell id="A6Q7QGBYelO12TpGn7Jf-100" value="&lt;br&gt;Read internal EAN&lt;br&gt;position, x to y" style="shape=manualInput;whiteSpace=wrap;html=1;dashed=0;size=15;fontSize=11;align=center;" vertex="1" parent="A6Q7QGBYelO12TpGn7Jf-83">
          <mxGeometry x="489" y="69.5" width="100" height="50" as="geometry" />
        </mxCell>
        <mxCell id="A6Q7QGBYelO12TpGn7Jf-101" style="edgeStyle=orthogonalEdgeStyle;rounded=0;orthogonalLoop=1;jettySize=auto;html=1;exitX=1;exitY=0.5;exitDx=0;exitDy=0;entryX=0;entryY=0.5;entryDx=0;entryDy=0;fontSize=11;" edge="1" parent="A6Q7QGBYelO12TpGn7Jf-83" source="A6Q7QGBYelO12TpGn7Jf-102" target="A6Q7QGBYelO12TpGn7Jf-105">
          <mxGeometry relative="1" as="geometry" />
        </mxCell>
        <mxCell id="A6Q7QGBYelO12TpGn7Jf-102" value="&lt;br&gt;Read expiration date,&amp;nbsp;position z to w" style="shape=manualInput;whiteSpace=wrap;html=1;dashed=0;size=15;fontSize=11;align=center;" vertex="1" parent="A6Q7QGBYelO12TpGn7Jf-83">
          <mxGeometry x="749" y="69.5" width="100" height="50" as="geometry" />
        </mxCell>
        <mxCell id="A6Q7QGBYelO12TpGn7Jf-103" style="edgeStyle=orthogonalEdgeStyle;rounded=0;orthogonalLoop=1;jettySize=auto;html=1;exitX=0.5;exitY=1;exitDx=0;exitDy=0;entryX=1;entryY=0.5;entryDx=0;entryDy=0;fontSize=11;" edge="1" parent="A6Q7QGBYelO12TpGn7Jf-83" source="A6Q7QGBYelO12TpGn7Jf-105" target="A6Q7QGBYelO12TpGn7Jf-109">
          <mxGeometry relative="1" as="geometry" />
        </mxCell>
        <mxCell id="A6Q7QGBYelO12TpGn7Jf-104" style="edgeStyle=orthogonalEdgeStyle;rounded=0;orthogonalLoop=1;jettySize=auto;html=1;exitX=1;exitY=0.5;exitDx=0;exitDy=0;entryX=1;entryY=0.5;entryDx=0;entryDy=0;fontSize=11;" edge="1" parent="A6Q7QGBYelO12TpGn7Jf-83" source="A6Q7QGBYelO12TpGn7Jf-105" target="A6Q7QGBYelO12TpGn7Jf-120">
          <mxGeometry relative="1" as="geometry">
            <Array as="points">
              <mxPoint x="994" y="94.75" />
              <mxPoint x="994" y="362.75" />
            </Array>
          </mxGeometry>
        </mxCell>
        <mxCell id="A6Q7QGBYelO12TpGn7Jf-105" value="Â EANÂ &#xa;expiraded" style="shape=rhombus;dashed=0;whitespace=wrap;perimeter=rhombusPerimeter;fontSize=11;horizontal=1;verticalAlign=middle;spacing=0;align=center;" vertex="1" parent="A6Q7QGBYelO12TpGn7Jf-83">
          <mxGeometry x="884" y="57" width="90" height="75" as="geometry" />
        </mxCell>
        <mxCell id="A6Q7QGBYelO12TpGn7Jf-106" style="edgeStyle=orthogonalEdgeStyle;rounded=0;orthogonalLoop=1;jettySize=auto;html=1;exitX=0.5;exitY=1;exitDx=0;exitDy=0;entryX=0.5;entryY=0;entryDx=0;entryDy=0;fontSize=11;" edge="1" parent="A6Q7QGBYelO12TpGn7Jf-83" source="A6Q7QGBYelO12TpGn7Jf-107" target="A6Q7QGBYelO12TpGn7Jf-124">
          <mxGeometry relative="1" as="geometry" />
        </mxCell>
        <mxCell id="A6Q7QGBYelO12TpGn7Jf-107" value="Create Product Object" style="shape=parallelogram;perimeter=parallelogramPerimeter;whiteSpace=wrap;html=1;dashed=0;fontSize=11;align=center;" vertex="1" parent="A6Q7QGBYelO12TpGn7Jf-83">
          <mxGeometry x="479" y="337.75" width="100" height="50" as="geometry" />
        </mxCell>
        <mxCell id="A6Q7QGBYelO12TpGn7Jf-108" style="edgeStyle=orthogonalEdgeStyle;rounded=0;orthogonalLoop=1;jettySize=auto;html=1;exitX=0.5;exitY=1;exitDx=0;exitDy=0;entryX=0.5;entryY=0;entryDx=0;entryDy=0;fontSize=11;" edge="1" parent="A6Q7QGBYelO12TpGn7Jf-83" source="A6Q7QGBYelO12TpGn7Jf-109" target="A6Q7QGBYelO12TpGn7Jf-112">
          <mxGeometry relative="1" as="geometry" />
        </mxCell>
        <mxCell id="A6Q7QGBYelO12TpGn7Jf-109" value="Search on &lt;br&gt;vm-products-api" style="shape=manualInput;whiteSpace=wrap;html=1;dashed=0;size=15;fontSize=11;align=center;" vertex="1" parent="A6Q7QGBYelO12TpGn7Jf-83">
          <mxGeometry x="624" y="162.75" width="100" height="50" as="geometry" />
        </mxCell>
        <mxCell id="A6Q7QGBYelO12TpGn7Jf-110" style="edgeStyle=orthogonalEdgeStyle;rounded=0;orthogonalLoop=1;jettySize=auto;html=1;exitX=0;exitY=0.5;exitDx=0;exitDy=0;entryX=0.5;entryY=0;entryDx=0;entryDy=0;fontSize=11;" edge="1" parent="A6Q7QGBYelO12TpGn7Jf-83" source="A6Q7QGBYelO12TpGn7Jf-112" target="A6Q7QGBYelO12TpGn7Jf-107">
          <mxGeometry relative="1" as="geometry" />
        </mxCell>
        <mxCell id="A6Q7QGBYelO12TpGn7Jf-111" style="edgeStyle=orthogonalEdgeStyle;rounded=0;orthogonalLoop=1;jettySize=auto;html=1;exitX=1;exitY=0.5;exitDx=0;exitDy=0;entryX=0.5;entryY=0;entryDx=0;entryDy=0;fontSize=11;" edge="1" parent="A6Q7QGBYelO12TpGn7Jf-83" source="A6Q7QGBYelO12TpGn7Jf-112" target="A6Q7QGBYelO12TpGn7Jf-120">
          <mxGeometry relative="1" as="geometry" />
        </mxCell>
        <mxCell id="A6Q7QGBYelO12TpGn7Jf-112" value="&lt;span style=&quot;font-size: 11px&quot;&gt;&amp;nbsp;EAN matches&lt;/span&gt;" style="shape=rhombus;html=1;dashed=0;whitespace=wrap;perimeter=rhombusPerimeter;fontSize=11;horizontal=1;verticalAlign=middle;spacing=0;" vertex="1" parent="A6Q7QGBYelO12TpGn7Jf-83">
          <mxGeometry x="629" y="233" width="90" height="75" as="geometry" />
        </mxCell>
        <mxCell id="A6Q7QGBYelO12TpGn7Jf-113" value="&lt;font style=&quot;font-size: 12px&quot;&gt;Yes&lt;/font&gt;" style="text;html=1;align=center;verticalAlign=middle;resizable=0;points=[];autosize=1;fontSize=20;" vertex="1" parent="A6Q7QGBYelO12TpGn7Jf-83">
          <mxGeometry x="239" y="337.75" width="40" height="30" as="geometry" />
        </mxCell>
        <mxCell id="A6Q7QGBYelO12TpGn7Jf-114" value="&lt;font style=&quot;font-size: 12px&quot;&gt;Yes&lt;/font&gt;" style="text;html=1;align=center;verticalAlign=middle;resizable=0;points=[];autosize=1;fontSize=20;" vertex="1" parent="A6Q7QGBYelO12TpGn7Jf-83">
          <mxGeometry x="439" y="79.5" width="40" height="30" as="geometry" />
        </mxCell>
        <mxCell id="A6Q7QGBYelO12TpGn7Jf-115" value="&lt;font style=&quot;font-size: 12px&quot;&gt;Yes&lt;/font&gt;" style="text;html=1;align=center;verticalAlign=middle;resizable=0;points=[];autosize=1;fontSize=20;" vertex="1" parent="A6Q7QGBYelO12TpGn7Jf-83">
          <mxGeometry x="709" y="69.5" width="40" height="30" as="geometry" />
        </mxCell>
        <mxCell id="A6Q7QGBYelO12TpGn7Jf-116" value="&lt;font style=&quot;font-size: 12px&quot;&gt;No&lt;/font&gt;" style="text;html=1;align=center;verticalAlign=middle;resizable=0;points=[];autosize=1;fontSize=20;" vertex="1" parent="A6Q7QGBYelO12TpGn7Jf-83">
          <mxGeometry x="669" y="128" width="30" height="30" as="geometry" />
        </mxCell>
        <mxCell id="A6Q7QGBYelO12TpGn7Jf-117" value="&lt;font style=&quot;font-size: 12px&quot;&gt;Yes&lt;/font&gt;" style="text;html=1;align=center;verticalAlign=middle;resizable=0;points=[];autosize=1;fontSize=20;" vertex="1" parent="A6Q7QGBYelO12TpGn7Jf-83">
          <mxGeometry x="592" y="242.75" width="40" height="30" as="geometry" />
        </mxCell>
        <mxCell id="A6Q7QGBYelO12TpGn7Jf-118" value="&lt;font style=&quot;font-size: 12px&quot;&gt;No&lt;/font&gt;" style="text;html=1;align=center;verticalAlign=middle;resizable=0;points=[];autosize=1;fontSize=20;" vertex="1" parent="A6Q7QGBYelO12TpGn7Jf-83">
          <mxGeometry x="899" y="128" width="30" height="30" as="geometry" />
        </mxCell>
        <mxCell id="A6Q7QGBYelO12TpGn7Jf-119" style="edgeStyle=orthogonalEdgeStyle;rounded=0;orthogonalLoop=1;jettySize=auto;html=1;exitX=0.5;exitY=1;exitDx=0;exitDy=0;entryX=1;entryY=0.25;entryDx=0;entryDy=0;fontSize=11;" edge="1" parent="A6Q7QGBYelO12TpGn7Jf-83" source="A6Q7QGBYelO12TpGn7Jf-120" target="A6Q7QGBYelO12TpGn7Jf-127">
          <mxGeometry relative="1" as="geometry">
            <Array as="points">
              <mxPoint x="819" y="425.75" />
            </Array>
          </mxGeometry>
        </mxCell>
        <mxCell id="A6Q7QGBYelO12TpGn7Jf-120" value="Create error message" style="shape=parallelogram;perimeter=parallelogramPerimeter;whiteSpace=wrap;html=1;dashed=0;fontSize=11;align=center;" vertex="1" parent="A6Q7QGBYelO12TpGn7Jf-83">
          <mxGeometry x="769" y="337.75" width="100" height="50" as="geometry" />
        </mxCell>
        <mxCell id="A6Q7QGBYelO12TpGn7Jf-121" value="&lt;font style=&quot;font-size: 12px&quot;&gt;Yes&lt;/font&gt;" style="text;html=1;align=center;verticalAlign=middle;resizable=0;points=[];autosize=1;fontSize=20;" vertex="1" parent="A6Q7QGBYelO12TpGn7Jf-83">
          <mxGeometry x="989" y="89.5" width="40" height="30" as="geometry" />
        </mxCell>
        <mxCell id="A6Q7QGBYelO12TpGn7Jf-122" value="&lt;font style=&quot;font-size: 12px&quot;&gt;No&lt;/font&gt;" style="text;html=1;align=center;verticalAlign=middle;resizable=0;points=[];autosize=1;fontSize=20;" vertex="1" parent="A6Q7QGBYelO12TpGn7Jf-83">
          <mxGeometry x="719" y="242.75" width="30" height="30" as="geometry" />
        </mxCell>
        <mxCell id="A6Q7QGBYelO12TpGn7Jf-123" style="edgeStyle=orthogonalEdgeStyle;rounded=0;orthogonalLoop=1;jettySize=auto;html=1;exitX=1;exitY=0.5;exitDx=0;exitDy=0;entryX=0;entryY=0.25;entryDx=0;entryDy=0;fontSize=11;" edge="1" parent="A6Q7QGBYelO12TpGn7Jf-83" source="A6Q7QGBYelO12TpGn7Jf-124" target="A6Q7QGBYelO12TpGn7Jf-127">
          <mxGeometry relative="1" as="geometry" />
        </mxCell>
        <mxCell id="A6Q7QGBYelO12TpGn7Jf-124" value="&lt;br&gt;&lt;br&gt;&lt;br&gt;&lt;br&gt;Weight product(Rotine)" style="shape=ellipse;html=1;dashed=0;whitespace=wrap;perimeter=ellipsePerimeter;fontSize=11;align=center;" vertex="1" parent="A6Q7QGBYelO12TpGn7Jf-83">
          <mxGeometry x="514" y="412.75" width="30" height="30" as="geometry" />
        </mxCell>
        <mxCell id="A6Q7QGBYelO12TpGn7Jf-125" value="" style="html=1;dashed=0;whitespace=wrap;shape=mxgraph.dfd.start" vertex="1" parent="A6Q7QGBYelO12TpGn7Jf-83">
          <mxGeometry x="624" y="492.75" width="80" height="30" as="geometry" />
        </mxCell>
        <mxCell id="A6Q7QGBYelO12TpGn7Jf-126" style="edgeStyle=orthogonalEdgeStyle;rounded=0;orthogonalLoop=1;jettySize=auto;html=1;exitX=0.5;exitY=1;exitDx=0;exitDy=0;entryX=0.5;entryY=0.5;entryDx=0;entryDy=-15;entryPerimeter=0;fontSize=11;" edge="1" parent="A6Q7QGBYelO12TpGn7Jf-83" source="A6Q7QGBYelO12TpGn7Jf-127" target="A6Q7QGBYelO12TpGn7Jf-125">
          <mxGeometry relative="1" as="geometry" />
        </mxCell>
        <mxCell id="A6Q7QGBYelO12TpGn7Jf-127" value="Create &lt;br&gt;response to middlewate" style="shape=parallelogram;perimeter=parallelogramPerimeter;whiteSpace=wrap;html=1;dashed=0;fontSize=11;align=center;" vertex="1" parent="A6Q7QGBYelO12TpGn7Jf-83">
          <mxGeometry x="620" y="411.75" width="100" height="50" as="geometry" />
        </mxCell>
      </root>
    </mxGraphModel>
  </diagram>
</mxfile>
